<svg width="27" height="29" viewBox="0 0 27 29" fill="none" xmlns="http://www.w3.org/2000/svg">
<g filter="url(#filter0_d)">
<path fill-rule="evenodd" clip-rule="evenodd" d="M15 19.5229C15 20.265 15.9624 20.5564 16.374 19.9389L22.2227 11.166C22.5549 10.6676 22.1976 10 21.5986 10H17V4.47708C17 3.73503 16.0376 3.44363 15.626 4.06106L9.77735 12.834C9.44507 13.3324 9.80237 14 10.4014 14H15V19.5229Z" fill="#99EFD0"/>
<path opacity="0.3" fill-rule="evenodd" clip-rule="evenodd" d="M3 6.5C3 5.67157 3.67157 5 4.5 5H9.5C10.3284 5 11 5.67157 11 6.5C11 7.32843 10.3284 8 9.5 8H4.5C3.67157 8 3 7.32843 3 6.5ZM3 18.5C3 17.6716 3.67157 17 4.5 17H9.5C10.3284 17 11 17.6716 11 18.5C11 19.3284 10.3284 20 9.5 20H4.5C3.67157 20 3 19.3284 3 18.5ZM2.5 11C1.67157 11 1 11.6716 1 12.5C1 13.3284 1.67157 14 2.5 14H6.5C7.32843 14 8 13.3284 8 12.5C8 11.6716 7.32843 11 6.5 11H2.5Z" fill="#99EFD0"/>
</g>
<defs>
<filter id="filter0_d" x="-4" y="0" width="32" height="32" filterUnits="userSpaceOnUse" color-interpolation-filters="sRGB">
<feFlood flood-opacity="0" result="BackgroundImageFix"/>
<feColorMatrix in="SourceAlpha" type="matrix" values="0 0 0 0 0 0 0 0 0 0 0 0 0 0 0 0 0 0 127 0"/>
<feOffset dy="4"/>
<feGaussianBlur stdDeviation="2"/>
<feColorMatrix type="matrix" values="0 0 0 0 0 0 0 0 0 0 0 0 0 0 0 0 0 0 0.25 0"/>
<feBlend mode="normal" in2="BackgroundImageFix" result="effect1_dropShadow"/>
<feBlend mode="normal" in="SourceGraphic" in2="effect1_dropShadow" result="shape"/>
</filter>
</defs>
</svg>
