<svg width="1170" height="31" viewBox="0 0 1170 31" fill="none" xmlns="http://www.w3.org/2000/svg">
<g opacity="0.3">
<g clip-path="url(#clip0)">
<path d="M114.388 16.4403C114.348 16.4877 114.31 16.5369 114.268 16.5815L114.267 16.5908L110.284 21.0455L110.278 21.0436C110.013 21.3412 109.699 21.5772 109.353 21.7382C109.006 21.8992 108.635 21.9819 108.26 21.9815H104.34C104.262 21.9814 104.185 21.9984 104.114 22.0315C104.042 22.0647 103.976 22.1134 103.921 22.1749C103.866 22.2362 103.823 22.3092 103.793 22.3895C103.763 22.4697 103.748 22.5558 103.748 22.6427V26.5578L103.736 26.5587C103.714 26.7029 103.658 26.8377 103.573 26.9484C103.487 27.059 103.377 27.1413 103.252 27.1861C103.128 27.2309 102.995 27.2365 102.868 27.2024C102.741 27.1682 102.625 27.0956 102.532 26.9925L102.53 26.9943L98.9179 22.9566L98.9212 22.9501C98.6447 22.6535 98.4246 22.2974 98.2744 21.9032C98.1241 21.509 98.0467 21.0849 98.0469 20.6563V10.5537C98.0469 9.69752 98.3499 8.9221 98.8415 8.34913L98.8398 8.34356L102.935 3.76352L102.937 3.76445C103.468 3.18117 104.183 2.85468 104.928 2.85532H108.26C108.685 2.85532 109.087 2.96211 109.448 3.14877V3.14134C109.757 3.30199 110.038 3.51836 110.274 3.78395L110.279 3.78117L115.139 9.21741L115.14 15.5943H120.828V25.5029C120.83 25.5085 120.83 25.515 120.83 25.5215V25.7453C120.805 26.1475 120.644 26.524 120.381 26.799C120.117 27.0741 119.77 27.2272 119.41 27.2274H116.559C116.362 27.2272 116.168 27.1815 115.987 27.0929C115.807 27.0043 115.645 26.875 115.512 26.713C115.378 26.5509 115.277 26.3597 115.213 26.1515C115.149 25.9432 115.124 25.7224 115.14 25.5029V15.5943L114.388 16.4403ZM108.856 15.6018C108.934 15.6019 109.011 15.5849 109.083 15.5517C109.155 15.5185 109.22 15.4699 109.275 15.4084C109.33 15.3471 109.373 15.2741 109.403 15.1938C109.433 15.1136 109.448 15.0275 109.448 14.9406V9.89439C109.448 9.80748 109.433 9.72142 109.403 9.64114C109.373 9.56086 109.33 9.48793 109.275 9.42652C109.22 9.36511 109.155 9.31643 109.083 9.28326C109.011 9.25008 108.934 9.23308 108.856 9.2332V9.23227H104.339C104.182 9.23227 104.032 9.30189 103.921 9.42586C103.81 9.54984 103.747 9.71801 103.747 9.89345V14.9387C103.747 15.3047 104.012 15.6 104.339 15.6H108.855L108.856 15.6018Z" fill="white"/>
<path d="M115.144 15.601H120.831L115.144 9.22589V15.601Z" fill="white"/>
<path d="M128.894 8.16701H134.157C136.308 8.16701 138.216 8.16701 139.365 10.0122C139.866 10.8415 140.107 12.0227 140.107 13.0173C140.107 13.8252 139.958 14.6136 139.662 15.2971C138.532 17.9094 136.122 17.9716 134.343 18.0124H132.175V22.8005H128.894V8.16701ZM132.176 10.8619V15.2971H134.143C135.367 15.2971 136.851 15.2563 136.851 12.9969C136.851 10.861 135.2 10.861 134.254 10.861L132.176 10.8619ZM144.038 13.0981C144.668 12.4963 145.354 12.02 146.836 11.8537V14.6731L145.891 14.8384C144.52 15.1076 144.112 15.3361 144.112 16.704V22.7977H141.258V11.9577H144.038V13.0981ZM157.974 17.3652C157.974 20.1019 156.566 23.1069 152.784 23.1069C150.06 23.1069 147.577 21.3657 147.577 17.3652C147.577 14.049 149.448 11.4163 153.156 11.6447C157.103 11.8936 157.974 15.3965 157.974 17.3652ZM150.931 15.2321C150.579 15.8543 150.45 16.6019 150.45 17.3494C150.45 19.072 151.19 20.5875 152.784 20.5875C154.323 20.5875 155.083 19.1964 155.083 17.4952C155.083 16.2907 154.823 15.3566 154.286 14.7752C153.693 14.153 153.025 14.1316 152.618 14.1735C151.802 14.2356 151.321 14.5468 150.932 15.2321H150.931ZM160.292 10.8972C160.292 10.3586 160.328 9.63241 160.699 9.05201C161.051 8.5134 161.848 7.95343 163.183 7.95343C163.757 7.95343 164.332 8.05744 164.888 8.13916V10.5239H164.202C163.127 10.5239 163.072 10.7728 163.09 12.2233H164.999V14.1716H163.108V22.7949H160.272V14.1716H158.753V12.2233H160.292V10.8972Z" fill="white"/>
<path d="M166.425 10.6148H169.241V8.14835H166.425V10.6148ZM166.425 22.8031H169.241V11.9623H166.425V22.8031Z" fill="white"/>
<path d="M172.151 8.84488H174.987V12.2233H176.859V14.1715H174.969V19.0432C174.95 19.7062 174.95 20.2661 175.71 20.2661L176.729 20.2244V22.7113C176.118 22.8153 175.747 22.8775 175.229 22.8775C174.245 22.8775 173.171 22.8153 172.559 21.8198C172.17 21.1781 172.152 20.4111 172.152 19.3747V14.1511H170.743V12.2028H172.151V8.84488Z" fill="white"/>
<path d="M187.567 8.16724C187.957 9.7422 188.345 11.3181 188.77 12.894C189.494 15.7124 189.624 16.1684 190.032 19.0081C190.42 16.1062 190.513 15.6094 191.106 12.6238C191.384 11.1315 191.68 9.63912 191.959 8.16724H195.202L191.885 22.8007H188.512C188.104 21.1849 187.714 19.5672 187.288 17.9718C186.584 15.2769 186.546 15.1728 186.157 13.1215C185.824 14.9249 185.787 15.0698 185.045 17.8678L183.785 22.8007H180.412L177.095 8.16724H180.357C181.765 15.1106 181.915 15.8777 182.303 19.049C182.784 16.1479 182.915 15.588 183.601 12.6859L184.675 8.16724H187.567Z" fill="white"/>
<path d="M204.784 20.0464C204.45 20.6063 204.116 21.145 203.616 21.6632C202.781 22.5342 201.521 23.1972 199.965 23.1972C197.092 23.1972 195.072 21.145 195.072 17.6003C195.072 14.9891 196.221 11.6311 200.039 11.6311C200.614 11.6311 202.281 11.6933 203.523 13.1856C204.784 14.6993 204.857 16.8128 204.895 18.0359H197.982C197.963 19.3824 198.649 20.7308 200.188 20.7308C201.744 20.7308 202.281 19.5904 202.634 18.8234L204.784 20.0464ZM201.947 16.0366C201.892 15.5824 201.818 14.9844 201.41 14.5098C201.057 14.117 200.522 13.9109 200.02 13.9109C199.335 13.9109 198.853 14.2823 198.575 14.6129C198.185 15.0875 198.093 15.5824 198 16.0366H201.947Z" fill="white"/>
<path d="M206.547 22.8007H209.401V8.16724H206.547V22.8007Z" fill="white"/>
<path d="M211.952 22.8007H214.806V8.16724H211.952V22.8007Z" fill="white"/>
</g>
<g clip-path="url(#clip1)">
<path d="M297.925 16.1624L304.871 27.1308C304.953 27.2563 305.066 27.3582 305.199 27.4266C305.332 27.4949 305.48 27.5274 305.629 27.5208H308.202C308.318 27.5222 308.434 27.5002 308.541 27.4561C308.649 27.412 308.746 27.3467 308.829 27.264C308.911 27.1813 308.976 27.083 309.02 26.9747C309.064 26.8663 309.086 26.7503 309.085 26.6332V3.40444C309.083 3.21918 309.025 3.03902 308.917 2.88866C308.81 2.73829 308.659 2.62509 308.485 2.56457C308.312 2.50405 308.123 2.49919 307.947 2.55064C307.77 2.60209 307.614 2.70734 307.499 2.85195L297.925 15.096C297.822 15.2542 297.766 15.4396 297.766 15.6292C297.766 15.8188 297.822 16.0042 297.925 16.1624Z" fill="white"/>
<path d="M290.117 27.5171H294.699C294.815 27.5184 294.931 27.4964 295.038 27.4523C295.146 27.4082 295.243 27.3429 295.326 27.2603C295.408 27.1776 295.473 27.0792 295.517 26.9709C295.561 26.8626 295.583 26.7465 295.582 26.6294V20.7389C295.579 20.5539 295.52 20.3743 295.412 20.2245C295.304 20.0748 295.153 19.9621 294.98 19.9019C294.806 19.8418 294.618 19.8369 294.442 19.8883C294.266 19.9395 294.109 20.0444 293.994 20.1885L289.412 26.079C289.314 26.2123 289.254 26.3701 289.24 26.5353C289.225 26.7004 289.256 26.8664 289.329 27.015C289.402 27.1636 289.514 27.2891 289.653 27.3777C289.792 27.4663 289.953 27.5145 290.117 27.5171Z" fill="white"/>
<path d="M371.961 14.2732C371.909 14.2086 371.852 14.1482 371.79 14.0925L371.695 14.0112L371.647 13.9685C371.429 13.7833 371.191 13.6213 370.939 13.4851C370.667 13.3202 370.378 13.1841 370.078 13.0788C369.77 12.9682 369.454 12.8839 369.132 12.827C368.302 12.6782 367.449 12.7219 366.638 12.955C366.153 13.0932 365.687 13.2917 365.251 13.546C364.823 13.799 364.428 14.1062 364.076 14.4601C363.726 14.8171 363.417 15.213 363.155 15.6402C362.889 16.0705 362.686 16.537 362.551 17.0255C362.265 18.0358 362.265 19.1067 362.551 20.117C362.689 20.6036 362.893 21.069 363.155 21.5002C363.417 21.9275 363.726 22.3233 364.076 22.6803C364.43 23.0346 364.825 23.3425 365.255 23.5964C365.692 23.8435 366.155 24.0411 366.636 24.1855C367.467 24.4356 368.346 24.4796 369.199 24.3134C369.526 24.2588 369.847 24.1668 370.154 24.0392C370.448 23.9181 370.733 23.7748 371.006 23.6107C371.277 23.4476 371.539 23.2679 371.788 23.0723C371.86 23.0093 371.927 22.9415 371.99 22.8693L372.022 22.8327C372.082 22.7609 372.127 22.6781 372.155 22.589L372.167 22.5158C372.173 22.3988 372.146 22.2825 372.088 22.1806L372.06 22.136C372.038 22.1 372.013 22.066 371.985 22.0344L371.911 21.9328C371.762 21.7297 371.621 21.5266 371.47 21.3398C371.406 21.2656 371.326 21.2072 371.236 21.1692C371.147 21.1387 371.049 21.1387 370.96 21.1692C370.832 21.2268 370.715 21.3073 370.615 21.4068L370.483 21.5205C370.351 21.6302 370.281 21.7013 370.097 21.8313C369.933 21.9581 369.754 22.0664 369.565 22.1543C369.362 22.2587 369.146 22.3352 368.922 22.3818C368.187 22.5423 367.421 22.4611 366.734 22.1502C366.293 21.9499 365.892 21.6697 365.551 21.3235C365.202 20.9696 364.922 20.5518 364.727 20.0926C364.52 19.6265 364.413 19.1216 364.413 18.6108C364.413 18.1001 364.52 17.5952 364.727 17.1291C364.924 16.6675 365.202 16.2462 365.549 15.886C365.895 15.5376 366.296 15.2505 366.736 15.037C367.374 14.732 368.093 14.6464 368.784 14.7932C369.015 14.8466 369.241 14.9186 369.461 15.0085C369.67 15.0981 369.872 15.204 370.065 15.3254C370.468 15.565 370.923 16.2516 371.365 15.7072L372.003 14.842C372.034 14.8005 372.055 14.7534 372.066 14.7035C372.078 14.6537 372.079 14.6019 372.07 14.5515C372.059 14.4507 372.021 14.3546 371.961 14.2732Z" fill="white"/>
<path d="M332.667 23.481L325.679 7.45278C325.632 7.33376 325.551 7.23154 325.446 7.15918C325.342 7.08682 325.218 7.0476 325.091 7.04654H323.97C323.845 7.04604 323.722 7.08303 323.618 7.15281C323.514 7.2226 323.432 7.32205 323.384 7.43856L316.382 23.4627C316.333 23.5607 316.312 23.6698 316.319 23.7789C316.326 23.8881 316.361 23.9934 316.422 24.0842C316.479 24.1771 316.559 24.2535 316.654 24.3061C316.749 24.3588 316.855 24.3859 316.964 24.3849H317.998C318.124 24.3874 318.247 24.3513 318.352 24.2813C318.458 24.2112 318.539 24.1106 318.586 23.9928L320.267 20.0381H328.76L330.431 23.9928C330.478 24.1122 330.559 24.2146 330.664 24.287C330.769 24.3594 330.894 24.3984 331.021 24.3991H332.029C332.133 24.4057 332.238 24.3861 332.333 24.3417C332.428 24.2974 332.51 24.2298 332.573 24.1452C332.646 24.0533 332.694 23.9431 332.711 23.8262C332.727 23.7093 332.712 23.59 332.667 23.481ZM321.161 17.9967L321.189 17.9337L324.557 10.0344L327.934 17.9967H321.161Z" fill="white"/>
<path d="M396.652 16.782C396.478 16.1617 396.206 15.5739 395.846 15.0412C395.58 14.6828 395.275 14.3563 394.935 14.0683C394.613 13.7794 394.248 13.5436 393.853 13.3695C393.467 13.1755 393.063 13.0243 392.644 12.9186C391.71 12.6867 390.732 12.7057 389.807 12.9735C389.332 13.1064 388.878 13.3046 388.457 13.5625C388.04 13.824 387.656 14.1334 387.31 14.4847C386.971 14.8356 386.683 15.2337 386.456 15.6668C386.214 16.1078 386.029 16.5782 385.906 17.0663C385.69 17.8436 385.647 18.6592 385.781 19.455C385.816 19.766 385.875 20.0737 385.958 20.3752C386.132 20.9968 386.404 21.586 386.764 22.1199C387.03 22.4778 387.335 22.8035 387.675 23.0909C387.998 23.3801 388.364 23.6165 388.759 23.7916C389.144 23.986 389.55 24.1365 389.968 24.2405C391.393 24.5916 392.898 24.3601 394.153 23.5966C394.57 23.3357 394.954 23.0269 395.3 22.6765C395.629 22.3395 395.907 21.9547 396.124 21.535L396.142 21.4944C396.183 21.4391 396.207 21.3735 396.213 21.305C396.219 21.2364 396.205 21.1677 396.174 21.1064C396.149 21.0598 396.112 21.0207 396.067 20.9929C396.023 20.965 395.971 20.9496 395.918 20.9479H394.248C394.178 20.9463 394.108 20.961 394.044 20.9909C393.98 21.0209 393.924 21.0652 393.879 21.1206C393.669 21.3779 393.423 21.6035 393.15 21.7909C392.857 21.9794 392.539 22.1237 392.205 22.2195C391.463 22.4359 390.673 22.4132 389.946 22.1545C389.559 22.0127 389.194 21.8127 388.866 21.5614C388.547 21.306 388.282 20.9891 388.086 20.629C387.915 20.2399 387.794 19.8303 387.725 19.4103L387.715 19.3575H387.772L396.356 19.3392C396.708 19.3392 396.908 19.1199 396.908 18.7299C396.932 18.0707 396.845 17.4123 396.652 16.782ZM394.825 17.5477L387.878 17.5802L387.896 17.5213C388.012 17.126 388.185 16.7501 388.41 16.4062C388.685 15.9978 389.033 15.6457 389.438 15.3682C389.733 15.1777 390.054 15.0318 390.391 14.9356C391.132 14.7191 391.922 14.7418 392.65 15.0006C393.038 15.1424 393.402 15.3423 393.73 15.5937C394.051 15.8504 394.317 16.1695 394.512 16.5321C394.682 16.831 394.804 17.1553 394.873 17.4928L394.885 17.5477H394.825Z" fill="white"/>
<path d="M345 22.6663C345.346 22.3095 345.649 21.9135 345.904 21.4862C346.157 21.047 346.354 20.5775 346.491 20.0888C346.775 19.0788 346.775 18.0092 346.491 16.9993C346.354 16.5106 346.157 16.0411 345.904 15.6018C345.399 14.7344 344.681 14.0115 343.821 13.5016C343.39 13.25 342.931 13.0515 342.453 12.9105C341.22 12.5508 339.901 12.6341 338.723 13.1461C338.227 13.3736 337.764 13.6681 337.346 14.0216L337.272 14.0845V13.4589C337.281 13.3814 337.272 13.3029 337.246 13.2292C337.221 13.1556 337.179 13.0888 337.124 13.0336C337.069 12.9786 337.003 12.9367 336.93 12.9111C336.856 12.8856 336.778 12.877 336.702 12.8861H335.823C335.745 12.8768 335.667 12.885 335.592 12.9101C335.518 12.9354 335.451 12.9769 335.394 13.0318C335.338 13.0866 335.295 13.1535 335.268 13.2274C335.24 13.3013 335.23 13.3803 335.237 13.4589V26.942C335.234 27.0166 335.247 27.091 335.273 27.1606C335.3 27.2303 335.34 27.2938 335.392 27.3474C335.443 27.4011 335.505 27.4437 335.573 27.4728C335.641 27.5019 335.715 27.5169 335.789 27.5168H336.685C336.843 27.5216 336.996 27.464 337.113 27.3564C337.165 27.3031 337.206 27.2395 337.234 27.1697C337.261 27.0999 337.274 27.0252 337.272 26.9501V23.0096L337.346 23.0726C337.758 23.4216 338.216 23.7108 338.707 23.9318C339.885 24.4436 341.202 24.527 342.434 24.1674C342.919 24.0296 343.385 23.831 343.821 23.5763C344.251 23.3257 344.647 23.0198 345 22.6663ZM342.334 22.1016C341.887 22.311 341.401 22.4194 340.909 22.4194C340.417 22.4194 339.931 22.311 339.484 22.1016C339.036 21.8983 338.634 21.6053 338.302 21.2405C337.96 20.8796 337.687 20.459 337.495 19.9994C337.302 19.534 337.202 19.0344 337.202 18.5298C337.202 18.0252 337.302 17.5256 337.495 17.0602C337.69 16.6088 337.963 16.1961 338.302 15.8415C338.64 15.4882 339.041 15.2016 339.484 14.9965C339.93 14.7878 340.416 14.6797 340.908 14.6797C341.4 14.6797 341.886 14.7878 342.332 14.9965C342.768 15.2038 343.163 15.4895 343.498 15.8395C343.831 16.1953 344.099 16.608 344.288 17.0582C344.483 17.523 344.583 18.0223 344.583 18.5268C344.583 19.0312 344.483 19.5305 344.288 19.9953C344.095 20.4525 343.827 20.874 343.496 21.2425C343.168 21.6021 342.773 21.894 342.334 22.1016Z" fill="white"/>
<path d="M350.535 12.9023H349.657C349.578 12.8927 349.498 12.9011 349.423 12.9268C349.348 12.9526 349.28 12.9951 349.224 13.0512C349.167 13.1072 349.124 13.1753 349.098 13.2505C349.071 13.3257 349.062 13.406 349.07 13.4853V26.9501C349.068 27.0251 349.082 27.0997 349.109 27.1695C349.136 27.2393 349.177 27.3029 349.229 27.3563C349.281 27.4082 349.342 27.449 349.41 27.4766C349.477 27.5042 349.55 27.5179 349.622 27.5169H350.517C350.675 27.5216 350.828 27.464 350.944 27.3563C350.997 27.3034 351.038 27.2399 351.066 27.17C351.093 27.1001 351.106 27.0252 351.103 26.9501V23.0096L351.178 23.0725C351.59 23.422 352.048 23.7113 352.54 23.9317C353.718 24.4438 355.036 24.5271 356.268 24.1674C356.753 24.0292 357.219 23.8306 357.655 23.5763C358.084 23.3212 358.48 23.012 358.833 22.6562C359.179 22.2993 359.481 21.9033 359.736 21.476C359.988 21.0367 360.186 20.5673 360.323 20.0786C360.608 19.0689 360.608 17.9987 360.323 16.9891C360.186 16.5003 359.989 16.0307 359.736 15.5917C359.231 14.7239 358.515 14.0008 357.655 13.4914C357.222 13.2402 356.762 13.0417 356.284 12.9003C355.052 12.5408 353.733 12.6241 352.554 13.1359C352.058 13.3634 351.595 13.6579 351.178 14.0113L351.097 14.0947V13.4853C351.107 13.4077 351.1 13.3288 351.076 13.2546C351.051 13.1803 351.01 13.1126 350.956 13.0565C350.902 13.0004 350.836 12.9574 350.763 12.9307C350.69 12.904 350.612 12.8943 350.535 12.9023ZM351.329 17.0744C351.524 16.6232 351.797 16.2106 352.135 15.8557C352.472 15.5001 352.872 15.2108 353.314 15.0026C353.76 14.7939 354.246 14.6858 354.738 14.6858C355.23 14.6858 355.715 14.7939 356.161 15.0026C356.604 15.2092 357.004 15.4956 357.344 15.8476C357.677 16.2034 357.945 16.6161 358.134 17.0663C358.329 17.531 358.43 18.0303 358.43 18.5348C358.43 19.0393 358.329 19.5387 358.134 20.0034C357.943 20.4623 357.675 20.8848 357.342 21.2526C357.013 21.612 356.618 21.9038 356.179 22.1118C355.732 22.3206 355.246 22.4287 354.754 22.4287C354.261 22.4287 353.775 22.3206 353.328 22.1118C352.881 21.9077 352.479 21.6148 352.147 21.2506C351.806 20.89 351.532 20.4694 351.341 20.0095C351.147 19.5454 351.045 19.047 351.043 18.5432C351.041 18.0393 351.138 17.5401 351.329 17.0744Z" fill="white"/>
<path d="M383.54 13.3188C383.548 13.24 383.538 13.1603 383.511 13.0859C383.484 13.0115 383.441 12.9441 383.385 12.889C383.329 12.8338 383.26 12.7923 383.185 12.7676C383.111 12.7428 383.032 12.7354 382.953 12.746H382.069C381.992 12.7369 381.914 12.7455 381.841 12.771C381.768 12.7965 381.702 12.8384 381.646 12.8935C381.592 12.9486 381.55 13.0154 381.524 13.0891C381.499 13.1627 381.49 13.2412 381.499 13.3188V19.782C381.506 20.1607 381.424 20.5358 381.261 20.8768C381.121 21.1887 380.914 21.466 380.657 21.6893C380.405 21.8984 380.121 22.0639 379.816 22.1788C379.474 22.3066 379.11 22.3629 378.745 22.344C378.381 22.3251 378.023 22.2316 377.696 22.0691C377.386 21.9072 377.117 21.675 376.91 21.3907C376.705 21.1202 376.558 20.8086 376.481 20.4767C376.397 20.1391 376.352 19.7928 376.348 19.4448V13.4853C376.358 13.2904 376.312 13.0967 376.217 12.9267C376.145 12.8525 376.058 12.7956 375.961 12.7605C375.864 12.7253 375.762 12.7126 375.659 12.7236H375.022C374.928 12.7204 374.833 12.7368 374.745 12.7717C374.656 12.8066 374.576 12.8594 374.508 12.9267C374.438 13.0061 374.383 13.0989 374.349 13.1997C374.314 13.3005 374.3 13.4073 374.307 13.5137V19.4631C374.299 20.113 374.396 20.7597 374.593 21.3785C374.779 21.9549 375.072 22.4899 375.458 22.9548C375.843 23.4096 376.325 23.7707 376.868 24.0109C377.813 24.3991 378.85 24.4987 379.851 24.2974C380.12 24.2318 380.385 24.1413 380.638 24.0272C380.875 23.9164 381.095 23.7714 381.289 23.5966L381.428 23.4666L381.505 23.3914V23.8444C381.503 23.9111 381.514 23.9776 381.538 24.0397C381.563 24.1018 381.599 24.1584 381.646 24.2059C381.699 24.2726 381.767 24.3257 381.845 24.361C381.922 24.3963 382.007 24.4128 382.091 24.4091H382.986C383.059 24.4106 383.131 24.3973 383.198 24.3701C383.266 24.3429 383.327 24.3023 383.379 24.2506C383.435 24.2003 383.479 24.1373 383.507 24.0668C383.535 23.9963 383.546 23.9201 383.54 23.8444V13.3188Z" fill="white"/>
<path d="M406.034 19.644C405.848 19.2513 405.579 18.9046 405.244 18.6284C404.879 18.3282 404.472 18.0839 404.035 17.9033C403.542 17.6968 403.031 17.5377 402.508 17.428C402.253 17.3697 402.002 17.293 401.759 17.1984C401.538 17.1173 401.328 17.0096 401.134 16.8775C400.871 16.7177 400.667 16.476 400.553 16.1889C400.487 15.9782 400.487 15.7518 400.553 15.541C400.624 15.3033 400.922 14.6493 402.075 14.5762C403.177 14.5071 403.731 15.09 403.922 15.35C403.951 15.3866 404.221 15.738 404.414 15.9594C404.449 15.9912 404.488 16.0185 404.529 16.0407C404.608 16.0715 404.694 16.082 404.778 16.071C404.862 16.06 404.942 16.0279 405.011 15.9777L405.684 15.474C405.757 15.4299 405.817 15.3674 405.859 15.2927C405.902 15.2178 405.924 15.1333 405.923 15.0474V15.0271C405.894 14.8965 405.842 14.7722 405.77 14.6594C405.572 14.3722 405.356 14.0968 405.125 13.8348C404.92 13.5909 404.68 13.3793 404.412 13.2072C404.135 13.0338 403.833 12.903 403.518 12.8192C402.619 12.5896 401.672 12.6263 400.793 12.9248C400.349 13.0585 399.938 13.2833 399.584 13.5849C399.246 13.8675 398.976 14.2229 398.792 14.6249C398.609 15.0272 398.512 15.4635 398.506 15.9058C398.5 16.3482 398.585 16.787 398.756 17.1943C398.921 17.5644 399.166 17.8932 399.471 18.1572C399.8 18.4415 400.163 18.685 400.549 18.8823C401.003 19.097 401.475 19.2697 401.96 19.3982C402.103 19.4307 402.246 19.4693 402.395 19.51C402.544 19.5506 402.689 19.5892 402.836 19.6237C403.097 19.6872 403.35 19.7812 403.588 19.904C403.789 20.0006 403.967 20.139 404.11 20.3102C404.236 20.4965 404.301 20.7173 404.297 20.9424C404.293 21.1675 404.22 21.3859 404.088 21.5675C403.941 21.7567 403.761 21.9166 403.556 22.0388C403.346 22.1618 403.12 22.2547 402.885 22.315C402.487 22.4055 402.074 22.4055 401.676 22.315C401.467 22.2606 401.264 22.1843 401.072 22.0875C400.876 21.9891 400.694 21.8663 400.529 21.7219C400.379 21.5533 400.249 21.368 400.14 21.1694C400.089 21.0512 400.013 20.9457 399.916 20.8607C399.84 20.7962 399.746 20.7559 399.647 20.7447C399.547 20.7335 399.448 20.752 399.358 20.7977L398.552 21.1816C398.484 21.2106 398.422 21.2519 398.369 21.3035C398.325 21.3475 398.29 21.3991 398.264 21.4558C398.233 21.5367 398.226 21.6249 398.244 21.7097C398.252 21.795 398.273 21.8787 398.307 21.9575C398.446 22.3259 398.644 22.6689 398.893 22.9732C399.169 23.305 399.506 23.5807 399.884 23.7856C400.238 23.9985 400.623 24.1528 401.025 24.2427C401.949 24.4632 402.914 24.4323 403.822 24.1533C404.301 24.0183 404.75 23.7892 405.141 23.4789C405.519 23.1915 405.823 22.8167 406.026 22.3861C406.226 21.9573 406.33 21.4896 406.331 21.016C406.333 20.5423 406.232 20.074 406.034 19.644Z" fill="white"/>
</g>
<g clip-path="url(#clip2)">
<path d="M502.744 8.76822C502.743 8.76778 502.743 8.76697 502.742 8.76614C502.741 8.7647 502.74 8.76284 502.739 8.7614C502.713 8.71853 502.686 8.67711 502.657 8.63671C502.649 8.6262 502.641 8.61631 502.633 8.6058C502.61 8.5755 502.586 8.54603 502.561 8.51738C502.547 8.5011 502.532 8.48523 502.517 8.46957C502.496 8.44855 502.476 8.42773 502.454 8.40733C502.435 8.38878 502.414 8.37044 502.394 8.35313C502.375 8.33726 502.356 8.3218 502.336 8.30655C502.313 8.288 502.288 8.27048 502.264 8.25317C502.245 8.2404 502.227 8.22783 502.208 8.21546C502.181 8.19897 502.155 8.18331 502.128 8.16826C502.109 8.15734 502.089 8.14683 502.069 8.13673C502.041 8.12251 502.013 8.10891 501.984 8.09655C501.964 8.08789 501.944 8.07923 501.924 8.0712C501.893 8.05903 501.862 8.04812 501.83 8.0376C501.812 8.03183 501.794 8.02585 501.775 8.0207C501.739 8.00998 501.701 8.0005 501.664 7.99247C501.65 7.98979 501.637 7.98649 501.624 7.98401C501.578 7.97495 501.53 7.96815 501.483 7.963C501.478 7.96258 501.474 7.96176 501.469 7.96135C501.133 7.92775 500.784 7.99164 500.47 8.1695L491.693 13.1337L485.417 9.58328L491.698 6.02985L495.887 8.39723C496.682 8.84672 497.7 8.58003 498.16 7.80039C498.619 7.02053 498.347 6.02305 497.551 5.57294L492.531 2.73525C492.016 2.44404 491.382 2.44404 490.867 2.73525L481.296 8.14868C481.034 8.28738 480.805 8.49492 480.645 8.76614C480.185 9.54622 480.458 10.5433 481.254 10.9932L490.862 16.4282C490.863 16.4291 490.864 16.4293 490.866 16.4301C490.916 16.4583 490.968 16.4825 491.021 16.5051C491.036 16.5115 491.05 16.5197 491.065 16.5255C491.096 16.5383 491.129 16.5472 491.162 16.5577C491.336 16.6152 491.514 16.6469 491.692 16.6469C491.692 16.6469 491.693 16.6469 491.694 16.6469C491.694 16.6469 491.695 16.6469 491.695 16.6469C491.877 16.6469 492.06 16.6142 492.237 16.554C492.265 16.5443 492.294 16.537 492.322 16.5257C492.339 16.5192 492.355 16.5097 492.372 16.5024C492.423 16.4804 492.473 16.4573 492.521 16.4301C492.523 16.4293 492.524 16.4291 492.526 16.4282L499.64 12.4045V19.5112L491.696 24.0042L483.753 19.5112V15.0177C483.753 14.1173 483.007 13.3875 482.089 13.3875C481.17 13.3875 480.424 14.1173 480.424 15.0177V20.4524C480.424 21.0348 480.741 21.5727 481.256 21.8639L490.864 27.2988C491.121 27.4441 491.409 27.5168 491.696 27.5168C491.983 27.5168 492.271 27.4441 492.528 27.2988L502.136 21.8639C502.651 21.5727 502.968 21.0348 502.968 20.4524V9.58328C502.968 9.2861 502.885 9.00828 502.744 8.76822Z" fill="white"/>
<path fill-rule="evenodd" clip-rule="evenodd" d="M511.598 17.8908C512.154 18.2506 512.718 18.5176 513.29 18.6917C513.863 18.8658 514.427 18.9529 514.982 18.9529C515.537 18.9529 515.985 18.8252 516.327 18.5698C516.668 18.3144 516.839 17.9836 516.839 17.5774C516.839 17.2408 516.703 16.9767 516.431 16.7852C516.159 16.5937 515.818 16.4224 515.407 16.2716C514.996 16.1207 514.554 15.9669 514.08 15.8102C513.605 15.6535 513.163 15.4446 512.752 15.1834C512.342 14.9222 512 14.5769 511.728 14.1474C511.457 13.7179 511.321 13.155 511.321 12.4586C511.321 11.9246 511.431 11.4371 511.65 10.9961C511.87 10.555 512.177 10.1748 512.57 9.85563C512.963 9.53644 513.435 9.28975 513.984 9.11569C514.534 8.94157 515.138 8.8545 515.798 8.8545C516.353 8.8545 516.905 8.90675 517.455 9.01119C518.004 9.11569 518.557 9.27819 519.112 9.49869V12.0407C518.591 11.7389 518.071 11.5155 517.55 11.3704C517.03 11.2253 516.515 11.1528 516.006 11.1528C515.474 11.1528 515.043 11.2688 514.713 11.5009C514.383 11.7331 514.218 12.0407 514.218 12.4238C514.218 12.7488 514.354 13.0041 514.626 13.1898C514.898 13.3756 515.236 13.5409 515.641 13.6861C516.046 13.8311 516.489 13.982 516.969 14.1388C517.449 14.2954 517.891 14.5073 518.296 14.7743C518.701 15.0412 519.039 15.3923 519.311 15.8276C519.583 16.2629 519.719 16.8345 519.719 17.5426C519.719 18.0881 519.606 18.5901 519.381 19.0486C519.155 19.5071 518.843 19.8988 518.444 20.2238C518.045 20.5489 517.567 20.8013 517.012 20.9813C516.457 21.1611 515.85 21.2511 515.19 21.2511C513.976 21.2511 512.778 20.9899 511.598 20.4676V17.8908ZM520.562 8.5237H523.391V12.9461C524.143 12.4005 524.935 12.1278 525.768 12.1278C526.219 12.1278 526.636 12.2061 527.017 12.3628C527.399 12.5195 527.729 12.7401 528.006 13.0244C528.284 13.3088 528.501 13.6483 528.657 14.0429C528.813 14.4376 528.891 14.8671 528.891 15.3314V21.0422H526.063V15.8537C526.063 15.4939 525.95 15.1979 525.725 14.9658C525.499 14.7336 525.213 14.6175 524.866 14.6175C524.345 14.6175 523.854 14.8497 523.391 15.3139V21.0422H520.562V8.5237ZM530.047 12.3367H532.875V21.0422H530.047V12.3367ZM529.908 10.0211C529.908 9.55675 530.053 9.18244 530.342 8.89807C530.631 8.61365 531.007 8.47147 531.47 8.47147C531.91 8.47147 532.277 8.61365 532.572 8.89807C532.867 9.18244 533.014 9.55675 533.014 10.0211C533.014 10.4621 532.867 10.8278 532.572 11.1179C532.277 11.4081 531.91 11.5532 531.47 11.5532C531.007 11.5532 530.631 11.4081 530.342 11.1179C530.053 10.8278 529.908 10.4621 529.908 10.0211ZM540.018 16.6894C540.018 16.051 539.859 15.5374 539.54 15.1486C539.222 14.7597 538.809 14.5653 538.3 14.5653C537.791 14.5653 537.334 14.7684 536.929 15.1747V18.2042C537.334 18.6104 537.791 18.8136 538.3 18.8136C538.809 18.8136 539.222 18.6163 539.54 18.2216C539.859 17.8269 540.018 17.3163 540.018 16.6894ZM534.101 12.3367H536.929V12.8068C537.588 12.3541 538.265 12.1278 538.959 12.1278C539.538 12.1278 540.07 12.2409 540.556 12.4673C541.041 12.6936 541.458 13.007 541.805 13.4074C542.152 13.8079 542.421 14.2867 542.612 14.8439C542.803 15.401 542.898 16.0162 542.898 16.6894C542.898 17.3626 542.803 17.9778 542.612 18.535C542.421 19.0921 542.152 19.5709 541.805 19.9714C541.458 20.3718 541.041 20.6853 540.556 20.9116C540.07 21.1379 539.538 21.2511 538.959 21.2511C538.265 21.2511 537.588 21.0248 536.929 20.5721V24.8551H534.101V12.3367ZM546.674 18.8136H548.53C548.97 18.8136 549.331 18.683 549.615 18.4218C549.898 18.1606 550.04 17.8269 550.04 17.4207C550.04 17.0144 549.898 16.6808 549.615 16.4196C549.331 16.1584 548.97 16.0278 548.53 16.0278H546.674V18.8136ZM546.674 13.8689H548.287C548.692 13.8689 549.028 13.747 549.294 13.5033C549.56 13.2595 549.693 12.9519 549.693 12.5804C549.693 12.1974 549.56 11.8869 549.294 11.6489C549.028 11.411 548.692 11.2921 548.287 11.2921H546.674V13.8689ZM543.915 9.06344H548.826C549.358 9.06344 549.843 9.14469 550.283 9.30719C550.723 9.46969 551.104 9.69607 551.428 9.98619C551.752 10.2764 552.004 10.6188 552.183 11.0134C552.362 11.4081 552.452 11.8376 552.452 12.3019C552.452 12.8939 552.313 13.422 552.035 13.8863C551.758 14.3506 551.376 14.693 550.89 14.9135C551.515 15.1457 551.998 15.5084 552.339 16.0017C552.681 16.495 552.851 17.0609 552.851 17.6993C552.851 18.1868 552.759 18.6366 552.574 19.0486C552.389 19.4607 552.131 19.8147 551.801 20.1107C551.472 20.4067 551.079 20.6359 550.621 20.7984C550.164 20.9609 549.664 21.0422 549.12 21.0422H543.915V9.06344ZM553.191 16.6894C553.191 16.0162 553.307 15.401 553.538 14.8439C553.769 14.2867 554.093 13.8079 554.51 13.4074C554.927 13.007 555.421 12.6936 555.994 12.4673C556.566 12.2409 557.194 12.1278 557.876 12.1278C558.559 12.1278 559.187 12.2409 559.759 12.4673C560.332 12.6936 560.823 13.007 561.234 13.4074C561.645 13.8079 561.965 14.2867 562.197 14.8439C562.428 15.401 562.544 16.0162 562.544 16.6894C562.544 17.3511 562.428 17.9633 562.197 18.5263C561.965 19.0893 561.645 19.5709 561.234 19.9714C560.823 20.3718 560.332 20.6853 559.759 20.9116C559.187 21.1379 558.559 21.2511 557.876 21.2511C557.194 21.2511 556.566 21.1379 555.994 20.9116C555.421 20.6853 554.927 20.3718 554.51 19.9714C554.093 19.5709 553.769 19.0893 553.538 18.5263C553.307 17.9633 553.191 17.3511 553.191 16.6894ZM556.089 16.6894C556.089 17.3511 556.254 17.8821 556.584 18.2825C556.913 18.683 557.344 18.8832 557.876 18.8832C558.397 18.8832 558.825 18.683 559.161 18.2825C559.496 17.8821 559.664 17.3511 559.664 16.6894C559.664 16.0278 559.496 15.4968 559.161 15.0963C558.825 14.6959 558.397 14.4956 557.876 14.4956C557.344 14.4956 556.913 14.6959 556.584 15.0963C556.254 15.4968 556.089 16.0278 556.089 16.6894ZM569.148 16.6894C569.148 16.051 568.989 15.5374 568.671 15.1486C568.353 14.7597 567.94 14.5653 567.431 14.5653C566.921 14.5653 566.465 14.7684 566.06 15.1747V18.2042C566.465 18.6104 566.921 18.8136 567.431 18.8136C567.94 18.8136 568.353 18.6163 568.671 18.2216C568.989 17.8269 569.148 17.3163 569.148 16.6894ZM563.231 8.5237H566.06V12.8068C566.719 12.3541 567.396 12.1278 568.09 12.1278C568.668 12.1278 569.2 12.2409 569.686 12.4673C570.172 12.6936 570.589 13.007 570.936 13.4074C571.283 13.8079 571.552 14.2867 571.742 14.8439C571.934 15.401 572.029 16.0162 572.029 16.6894C572.029 17.3626 571.934 17.9778 571.742 18.535C571.552 19.0921 571.283 19.5709 570.936 19.9714C570.589 20.3718 570.172 20.6853 569.686 20.9116C569.2 21.1379 568.668 21.2511 568.09 21.2511C567.396 21.2511 566.719 21.0248 566.06 20.5721V21.0422H563.231V8.5237Z" fill="white"/>
</g>
<g clip-path="url(#clip3)">
<path d="M742.753 19.8448C738.094 19.8448 734.303 16.0593 734.303 11.4065V2.96814H751.203V11.4065C751.203 16.0588 747.412 19.8448 742.753 19.8448ZM735.84 4.50238V11.4065C735.84 15.2129 738.941 18.3106 742.753 18.3106C746.565 18.3106 749.667 15.2134 749.667 11.4065V4.50238H735.84Z" fill="white"/>
<path d="M746.594 8.08215H738.913V9.6164H739.963L739.431 13.8678H740.979L741.512 9.6164H743.995L744.528 13.8678H746.076L745.544 9.6164H746.594V8.08215Z" fill="white"/>
<path d="M655.674 5.50363C660.207 5.50363 662.625 7.61577 662.625 10.6331C662.625 13.0475 660.811 14.8579 658.394 15.5222V15.5826C662.171 16.518 663.531 18.7206 663.531 21.0445C663.531 24.3636 661.113 26.6271 656.581 26.6271H646.609V26.0236C648.423 26.0236 648.423 26.0236 648.423 24.0618V8.06837C648.423 6.10658 648.423 6.10658 646.609 6.10658V5.50311H655.674V5.50363ZM653.861 15.4614C656.581 15.4614 657.638 13.651 657.638 10.784C657.638 8.21873 656.581 6.10658 654.768 6.10658H653.257V15.4614H653.861ZM653.257 16.0649V26.0236H655.372C657.789 26.0236 658.545 23.6093 658.545 20.8937C658.545 18.178 657.185 16.0654 654.466 16.0654H653.257V16.0649Z" fill="white"/>
<path d="M664.738 19.2338C664.738 14.1038 668.968 11.2368 672.745 11.2368C676.22 11.2368 679.362 12.7454 678.456 17.8754H669.512C669.512 21.9494 671.838 23.458 674.105 23.458C676.825 23.458 678.033 21.9494 678.638 20.8928H678.94C678.336 23.9101 676.22 26.928 672.443 26.928C667.457 26.9285 664.738 23.3077 664.738 19.2338ZM669.512 17.2719H673.954C674.468 15.2202 674.891 11.8402 672.594 11.8402C670.872 11.8402 669.633 13.4399 669.512 17.2719Z" fill="white"/>
<path d="M691.327 15.4614C691.327 14.1036 690.421 13.651 689.514 13.651C688.578 13.651 687.55 14.1036 686.493 15.0088V24.0613C686.493 26.0231 686.493 26.0231 688.306 26.0231V26.6266H679.845V26.0231C681.658 26.0231 681.658 26.0231 681.658 24.0613V14.5562C681.658 13.0475 681.658 13.0475 680.147 13.0475V12.5949L686.341 11.2371H686.583L686.492 14.4053H686.553C687.701 12.444 689.877 11.2371 692.083 11.2371C694.107 11.2371 696.162 12.444 696.162 15.7637V24.0624C696.162 26.0241 696.162 26.0241 697.975 26.0241V26.6276H690.119V26.0241C691.327 26.0241 691.327 26.0241 691.327 24.0624V15.4614Z" fill="white"/>
<path d="M707.945 23.4585C710.665 23.4585 711.873 21.9499 712.477 20.8933H712.78C712.175 23.9107 710.06 26.9285 706.283 26.9285C701.297 26.9285 698.578 23.3077 698.578 19.2338C698.578 14.1038 702.808 11.2368 706.585 11.2368C710.362 11.2368 712.357 13.0778 712.357 15.0089C712.357 16.0645 711.874 17.1211 710.061 17.1211C708.55 17.1211 708.217 16.1857 708.247 15.5521C708.399 13.3489 708.247 11.8402 706.434 11.8402C704.319 11.8402 703.352 14.6469 703.352 18.147C703.352 22.1007 705.679 23.4585 707.945 23.4585Z" fill="white"/>
<path d="M725.167 15.4613C725.167 14.1035 724.261 13.651 723.354 13.651C722.418 13.651 721.39 14.1035 720.333 15.0088V24.0613C720.333 26.0231 720.333 26.0231 722.146 26.0231V26.6266H713.685V26.0231C715.499 26.0231 715.499 26.0231 715.499 24.0613V6.71055C715.499 5.20137 715.499 5.20137 713.988 5.20137V4.74876L720.092 3.39096H720.333V14.4053H720.394C721.542 12.444 723.717 11.2371 725.924 11.2371C727.949 11.2371 730.003 12.444 730.003 15.7636V24.0623C730.003 26.0241 730.003 26.0241 731.817 26.0241V26.6276H723.959V26.0241C725.167 26.0241 725.167 26.0241 725.167 24.0623V15.4613Z" fill="white"/>
</g>
<g clip-path="url(#clip4)">
<path fill-rule="evenodd" clip-rule="evenodd" d="M834.984 13.3644C834.805 13.2048 834.554 13.1514 834.325 13.2237L828.094 15.1901L836.998 6.67253C837.272 6.40968 837.282 5.97405 837.019 5.6996C837.006 5.68645 836.994 5.6737 836.98 5.66171L833.655 2.6915C833.372 2.43831 832.937 2.46343 832.684 2.74716C832.655 2.78001 832.629 2.81519 832.607 2.85269L825.371 15.003C825.241 15.221 825.284 15.5008 825.474 15.6698L826.884 16.9315C827.057 17.0861 827.297 17.1422 827.521 17.0799L832.569 15.6728L826.759 24.8035C826.478 25.2445 827.06 25.7223 827.437 25.3605L837.145 16.0548C837.355 15.8518 837.361 15.5163 837.158 15.3057C837.149 15.2964 837.14 15.2875 837.13 15.2786L834.984 13.3644Z" fill="white"/>
<path fill-rule="evenodd" clip-rule="evenodd" d="M880.303 12.0623L879.339 11.2027C879.209 11.0858 879.008 11.0972 878.891 11.228C878.865 11.2576 878.844 11.2918 878.83 11.3293L876.848 16.6773C875.898 19.2394 874.772 20.1165 874.066 20.1165C873.841 20.1165 873.52 19.9525 873.52 19.4061C873.52 19.2203 873.552 18.8277 873.782 18.2073L875.671 13.1158C875.809 12.7443 875.705 12.3263 875.409 12.0627L874.445 11.2027C874.314 11.0858 874.113 11.0972 873.996 11.228C873.97 11.2576 873.949 11.2918 873.935 11.3293L871.953 16.6773C871.004 19.2394 869.878 20.1165 869.173 20.1165C868.947 20.1165 868.626 19.9525 868.626 19.4061C868.626 19.2203 868.659 18.8277 868.888 18.2073L873.012 7.0741C873.15 6.70292 873.046 6.285 872.751 6.02092L871.786 5.16093C871.655 5.04408 871.455 5.05577 871.338 5.18625C871.311 5.21585 871.291 5.25052 871.277 5.28752L867.056 16.6773C866.756 17.4863 866.615 18.3089 866.615 18.788C866.615 20.4083 867.709 21.3383 868.887 21.3383C869.771 21.3383 870.746 20.7732 871.629 19.6098C871.932 20.7132 872.824 21.3383 873.782 21.3383C874.315 21.3383 874.883 21.13 875.445 20.712L874.057 24.455C872.621 23.775 870.983 23.6582 869.465 24.1287C869.28 24.1852 869.318 24.455 869.509 24.4737C871.484 24.6595 873.11 25.5133 874.309 27.1176C874.525 27.4035 874.931 27.4607 875.217 27.2453C875.316 27.171 875.392 27.0701 875.434 26.954L880.564 13.1174C880.703 12.7455 880.6 12.3267 880.303 12.0623Z" fill="white"/>
<path fill-rule="evenodd" clip-rule="evenodd" d="M859.614 20.1084C859.227 20.1084 858.938 19.7282 858.938 19.1619C858.938 18.9726 858.997 18.5217 859.229 17.8899C860.555 14.4319 862.358 12.555 863.167 12.555C863.702 12.555 863.783 13.1111 863.783 13.7734C863.783 16.4726 861.375 20.1064 859.614 20.1064V20.1084ZM863.905 10.9413C862.951 10.9413 862.064 11.4894 861.27 12.326L863.295 6.81733C863.435 6.43871 863.33 6.01285 863.031 5.74416L862.055 4.86746C861.924 4.7484 861.72 4.75991 861.603 4.89326C861.576 4.92342 861.555 4.95835 861.541 4.99645L857.279 16.602C856.976 17.4267 856.835 18.2645 856.835 18.7527C856.835 20.3243 857.935 21.3514 859.431 21.3514C862.961 21.3514 866.146 17.1664 866.146 13.7909C866.144 12.1379 865.348 10.9413 863.905 10.9413Z" fill="white"/>
<path fill-rule="evenodd" clip-rule="evenodd" d="M850.596 20.1084C850.208 20.1084 849.92 19.7282 849.92 19.1619C849.92 18.9726 849.979 18.5217 850.211 17.8899C851.538 14.4319 853.344 12.555 854.154 12.555C854.689 12.555 854.771 13.1111 854.771 13.7734C854.77 16.4726 852.362 20.1064 850.595 20.1064L850.596 20.1084ZM852.255 12.326L854.282 6.81733C854.422 6.43871 854.317 6.01285 854.018 5.74416L853.041 4.86746C852.908 4.7484 852.706 4.75991 852.587 4.89326C852.561 4.92342 852.54 4.95835 852.526 4.99645L848.258 16.602C847.297 19.2122 846.159 20.1064 845.445 20.1064C845.217 20.1064 844.893 19.9397 844.893 19.3825C844.893 19.1932 844.926 18.7932 845.158 18.1609L847.066 12.9729C847.206 12.5947 847.101 12.1684 846.802 11.8994L845.827 11.0231C845.695 10.9044 845.491 10.9159 845.374 11.0489C845.347 11.0794 845.326 11.1139 845.312 11.1524L843.307 16.602C842.348 19.2127 841.209 20.1064 840.496 20.1064C840.267 20.1064 839.942 19.9397 839.942 19.3825C839.942 19.1932 839.976 18.7932 840.208 18.1609L842.115 12.9729C842.255 12.5947 842.15 12.1689 841.85 11.8998L840.876 11.0234C840.744 10.9048 840.541 10.9163 840.423 11.0493C840.396 11.0794 840.375 11.1148 840.361 11.1528L838.357 16.602C838.054 17.4267 837.912 18.2645 837.912 18.7527C837.912 20.4041 839.017 21.3514 840.209 21.3514C841.102 21.3514 842.088 20.7756 842.981 19.5905C843.287 20.7149 844.189 21.3514 845.157 21.3514C846.053 21.3514 847.044 20.7724 847.936 19.5802C848.256 20.6704 849.198 21.3514 850.409 21.3514C853.944 21.3514 857.135 17.1664 857.135 13.7909C857.134 12.1379 856.337 10.9413 854.893 10.9413C853.937 10.9413 853.049 11.4894 852.255 12.326Z" fill="white"/>
</g>
<g clip-path="url(#clip5)">
<path fill-rule="evenodd" clip-rule="evenodd" d="M969.092 2.68859C968.978 2.82226 968.971 2.99744 968.955 6.54559C968.945 8.79929 968.914 10.2629 968.879 10.2629C968.847 10.2629 968.77 10.2067 968.708 10.138C968.58 9.99438 967.912 9.55465 967.428 9.29448C966.145 8.60496 963.95 8.24305 962.403 8.4661C961.282 8.62731 959.329 9.36471 958.879 9.79606C958.81 9.8623 958.556 10.051 958.314 10.2158C957.894 10.5023 956.465 11.9711 956.465 12.116C956.465 12.1535 956.305 12.4312 956.11 12.7333C955.528 13.6355 955.269 14.3167 954.914 15.8828C954.636 17.1091 954.757 19.115 955.212 20.8371C955.386 21.4935 956.212 23.1319 956.414 23.2205C956.442 23.2325 956.465 23.2736 956.465 23.3115C956.465 23.545 957.598 24.7564 958.408 25.3888C960.599 27.0991 963.94 27.6094 966.471 26.6202C967.15 26.3553 968.375 25.6917 968.682 25.4232L968.91 25.2233L968.941 25.9846C968.969 26.6745 968.986 26.7619 969.124 26.9171L969.276 27.0887H970.669C971.947 27.0887 972.074 27.0784 972.21 26.9614L972.357 26.8345V15.5585C972.357 5.62224 972.347 4.27113 972.263 4.18614C972.212 4.13307 971.972 3.97904 971.731 3.84337C971.489 3.7077 971.235 3.54451 971.167 3.48026C970.362 2.73328 969.375 2.3566 969.092 2.68859ZM1021.77 2.67024C1021.68 2.77398 1021.67 2.96791 1021.67 3.98543C1021.67 5.34571 1021.66 5.33095 1022.18 5.68169C1022.36 5.8046 1022.57 5.95662 1022.63 6.01967C1022.7 6.08271 1022.91 6.22038 1023.1 6.32533C1023.29 6.43027 1023.64 6.65611 1023.88 6.8269C1024.44 7.23511 1024.77 7.24708 1024.96 6.86641C1025.1 6.58389 1025.09 3.02856 1024.96 2.74485L1024.86 2.54853H1023.37C1022 2.54853 1021.86 2.55891 1021.77 2.67024ZM1058.81 2.59362C1057.92 2.71333 1056.42 3.19336 1055.66 3.59877C1055.46 3.70452 1055.22 3.81145 1055.13 3.83579C1054.93 3.88886 1053.73 4.7344 1053.11 5.26032C1052.3 5.94984 1050.99 7.4849 1050.69 8.0962C1050.48 8.52236 1050.18 9.06704 1050.13 9.09657C1050.05 9.14844 1049.46 10.6687 1049.31 11.1943C1048.75 13.2201 1048.75 13.2105 1048.75 19.3962V24.7552L1048.9 25.1973C1048.98 25.4407 1049.12 25.7188 1049.2 25.8154C1049.28 25.9124 1049.4 26.0692 1049.45 26.1645C1049.6 26.4111 1050.21 26.8214 1050.64 26.9658C1051.16 27.1346 1060.5 27.1534 1061.6 26.9874C1063.37 26.722 1065.55 25.8214 1066.77 24.8553C1066.98 24.6913 1067.21 24.5318 1067.28 24.5006C1067.35 24.4691 1067.67 24.1782 1067.99 23.8542C1068.31 23.5298 1068.6 23.2544 1068.63 23.2421C1068.66 23.2297 1068.91 22.9317 1069.17 22.5797C1069.44 22.2277 1069.72 21.8702 1069.79 21.7856C1069.86 21.701 1070.03 21.4158 1070.16 21.1516C1070.29 20.887 1070.43 20.626 1070.47 20.571C1070.52 20.5155 1070.7 20.156 1070.87 19.7718C1072.13 16.8911 1072.18 12.9564 1070.97 10.0295C1070.78 9.55425 1070.58 9.12091 1070.54 9.06585C1070.49 9.01118 1070.35 8.75181 1070.23 8.49004C1069.76 7.50565 1068.18 5.64977 1067.21 4.94868C1067.04 4.82378 1066.76 4.61151 1066.59 4.47584C1064.82 3.08722 1061.36 2.25086 1058.81 2.59362ZM1061.19 7.17405C1062.56 7.55153 1063.65 8.72308 1064.01 10.1927C1064.18 10.871 1064.15 15.1199 1063.98 15.7424C1063.84 16.2463 1063.67 16.6298 1063.5 16.8588C1062.69 17.9115 1062.18 18.3176 1061.27 18.6077C1059.43 19.196 1057.24 17.9446 1056.66 15.969C1056.47 15.3369 1056.37 11.2705 1056.52 10.4561C1056.96 8.0563 1059.06 6.58389 1061.19 7.17405ZM982.702 8.37672C981.356 8.49484 979.223 9.29688 978.49 9.96086C978.358 10.0798 978.154 10.2302 978.035 10.2948C977.615 10.5239 976.357 11.9868 976.002 12.6571C974.961 14.6271 974.646 15.8043 974.646 17.7243C974.646 25.7863 983.646 30.0902 989.314 24.7388C991.248 22.9125 991.326 22.5071 989.808 22.1435C989.382 22.0418 988.773 21.8854 988.454 21.7968C987.592 21.5566 987.444 21.5721 987.048 21.9452C985.177 23.7082 982.531 23.9209 980.508 22.4711C979.523 21.7652 978.694 20.6939 978.44 19.7997L978.357 19.5072H985.115H991.873L992.076 19.3065L992.278 19.1058L992.243 17.7602C992.223 16.975 992.171 16.2348 992.117 15.9826C992.068 15.7448 991.981 15.3258 991.923 15.0512C991.808 14.4986 991.279 13.272 990.934 12.7568C990.811 12.5741 990.693 12.3646 990.672 12.2912C990.598 12.0318 989.282 10.5925 988.846 10.2932C988.673 10.1751 988.427 9.98879 988.298 9.87906C987.173 8.92419 984.536 8.21631 982.702 8.37672ZM1000.95 8.4681C1000.41 8.51837 999.504 8.74502 999.217 8.90224C999.119 8.95571 998.995 8.99961 998.941 8.99961C998.15 8.99961 996.153 11.0003 995.397 12.5498C994.475 14.4379 994.449 14.6873 994.471 21.3918L994.488 26.7679L994.664 26.9283C994.89 27.1346 997.399 27.1817 997.683 26.985C997.935 26.809 997.935 26.8085 997.968 20.9704L997.999 15.2843L998.191 14.7815C998.297 14.505 998.542 14.056 998.735 13.7839C999.372 12.8842 999.318 12.9336 1000.22 12.4333C1001.19 11.9001 1002.23 11.9452 1003.17 12.561C1003.42 12.7237 1003.64 12.8566 1003.67 12.8566C1003.9 12.8566 1004.82 14.3143 1005.02 15.0093C1005.28 15.8741 1005.3 16.3389 1005.3 21.7059C1005.3 26.7376 1005.3 26.7994 1005.43 26.9431C1005.64 27.1809 1008.22 27.1681 1008.48 26.9283L1008.66 26.7679L1008.69 21.1923L1008.73 15.6167L1008.92 14.985C1010.12 11.0678 1014.51 11.1392 1015.82 15.0976L1015.99 15.6167L1016.02 21.2429C1016.05 25.876 1016.07 26.8884 1016.14 26.979C1016.3 27.1801 1019.09 27.1406 1019.27 26.9347L1019.41 26.781V21.1939C1019.41 14.8968 1019.42 15.0237 1018.94 13.5576C1018.53 12.294 1017.57 10.7509 1016.9 10.2921C1016.78 10.2091 1016.56 10.0231 1016.41 9.87946C1015.23 8.74144 1012.57 8.13052 1010.86 8.60417C1009.39 9.01357 1008.43 9.58737 1007.42 10.6727L1006.94 11.1915L1006.67 10.8567C1005.35 9.2079 1003.09 8.26739 1000.95 8.4681ZM1022.06 8.44775C1021.64 8.53434 1021.67 7.80652 1021.67 17.8153V26.813L1021.83 26.951C1022 27.0895 1024.46 27.1705 1024.77 27.0472C1025.06 26.9279 1025.05 27.2068 1025.05 17.7782C1025.05 8.10538 1025.07 8.61414 1024.7 8.46451C1024.55 8.40306 1022.34 8.3891 1022.06 8.44775ZM1034.61 8.53035C1033.84 8.6756 1032.74 9.04269 1032.2 9.33319C1031.77 9.55785 1031.12 9.97961 1031.07 10.0626C1031.05 10.0886 1030.91 10.1935 1030.76 10.2948C1030.6 10.3966 1030.21 10.7677 1029.89 11.1196C1027.76 13.436 1026.96 16.1893 1027.44 19.5738C1027.77 21.9273 1029.68 24.7464 1031.7 25.8801C1032.54 26.3505 1032.72 26.4367 1033.31 26.655C1036.43 27.7914 1040.03 26.88 1042.42 24.3526C1044.41 22.2473 1045.41 18.6509 1044.78 15.8828C1044.42 14.3202 1044.2 13.7065 1043.68 12.8902C1043.52 12.6339 1043.31 12.29 1043.22 12.1251C1042.98 11.7018 1041.89 10.5714 1041.27 10.1209C1039.32 8.68996 1036.87 8.10379 1034.61 8.53035ZM1059.58 8.47209C1058.87 8.65126 1058.17 9.32282 1057.91 10.0882L1057.75 10.5622V12.8902C1057.75 15.1534 1057.75 15.2296 1057.89 15.6498C1058.62 17.8217 1061.59 18.012 1062.56 15.9491C1062.85 15.3465 1062.86 15.1578 1062.84 12.7226L1062.82 10.4293L1062.63 9.99717C1062.08 8.77694 1060.84 8.15646 1059.58 8.47209ZM1060.7 11.2872L1060.91 11.5135V13.2344C1060.91 14.7472 1060.9 14.9751 1060.81 15.1199C1060.54 15.5321 1060.2 15.5704 1059.87 15.2244L1059.66 14.9982V13.2556V11.5135L1059.87 11.2872C1060.02 11.1244 1060.14 11.061 1060.28 11.061C1060.43 11.061 1060.55 11.1244 1060.7 11.2872ZM964.821 12.1875C968.641 13.2293 970.202 17.8879 967.842 21.2031C967.396 21.8295 967.231 21.9923 966.436 22.5933C964.402 24.1299 961.233 23.6048 959.451 21.4357C956.096 17.352 959.878 10.8391 964.821 12.1875ZM984.833 12.1914C986.455 12.7218 987.742 13.8913 988.343 15.3812L988.559 15.916H983.454H978.35L978.435 15.6601C978.612 15.1283 979.033 14.3781 979.317 14.0872C979.389 14.0138 979.509 13.8681 979.585 13.7628C980.557 12.4152 983.146 11.64 984.833 12.1914ZM1037.5 12.2266C1038.57 12.5565 1039.17 12.9293 1039.92 13.7404C1043.74 17.8396 1040.16 24.6032 1034.85 23.3068C1033.97 23.0909 1033.65 22.9173 1032.63 22.1017C1031.11 20.8838 1030.41 18.4458 1030.94 16.2531C1031.68 13.2397 1034.72 11.3734 1037.5 12.2266ZM1066.72 16.6741C1066.83 16.7986 1066.93 16.965 1066.93 17.0444C1066.93 17.4194 1066.26 19.206 1066.06 19.3743C1066.04 19.3923 1065.84 19.6468 1065.62 19.9393C1065.41 20.2322 1065.14 20.5462 1065.02 20.6376C1064.91 20.7294 1064.61 20.9724 1064.35 21.1783C1063.66 21.7418 1063.01 22.0438 1061.76 22.4005C1060.22 22.8375 1057.77 22.3714 1056.44 21.387C1055.52 20.7094 1054.44 19.5311 1054.3 19.0415C1054.27 18.9502 1054.16 18.6792 1054.04 18.439C1053.5 17.2894 1053.59 16.6809 1054.3 16.6809C1054.65 16.6809 1054.79 16.8245 1054.96 17.37C1055.04 17.6126 1055.19 17.9849 1055.31 18.1972C1055.42 18.4094 1055.52 18.607 1055.52 18.6361C1055.52 18.8935 1056.81 20.174 1057.35 20.4597C1060.66 22.1954 1064.49 20.7993 1065.52 17.4789C1065.84 16.4363 1066.24 16.1693 1066.72 16.6741Z" fill="white"/>
<path fill-rule="evenodd" clip-rule="evenodd" d="M969.092 2.68859C968.978 2.82226 968.971 2.99744 968.955 6.54559C968.945 8.79929 968.914 10.2629 968.879 10.2629C968.847 10.2629 968.77 10.2067 968.708 10.138C968.58 9.99438 967.912 9.55465 967.428 9.29448C966.145 8.60496 963.95 8.24305 962.403 8.4661C961.282 8.62731 959.329 9.36471 958.879 9.79606C958.81 9.8623 958.556 10.051 958.314 10.2158C957.894 10.5023 956.465 11.9711 956.465 12.116C956.465 12.1535 956.305 12.4312 956.11 12.7333C955.528 13.6355 955.269 14.3167 954.914 15.8828C954.636 17.1091 954.757 19.115 955.212 20.8371C955.386 21.4935 956.212 23.1319 956.414 23.2205C956.442 23.2325 956.465 23.2736 956.465 23.3115C956.465 23.545 957.598 24.7564 958.408 25.3888C960.599 27.0991 963.94 27.6094 966.471 26.6202C967.15 26.3553 968.375 25.6917 968.682 25.4232L968.91 25.2233L968.941 25.9846C968.969 26.6745 968.986 26.7619 969.124 26.9171L969.276 27.0887H970.669C971.947 27.0887 972.074 27.0784 972.21 26.9614L972.357 26.8345V15.5585C972.357 5.62224 972.347 4.27113 972.263 4.18614C972.212 4.13307 971.972 3.97904 971.731 3.84337C971.489 3.7077 971.235 3.54451 971.167 3.48026C970.362 2.73328 969.375 2.3566 969.092 2.68859ZM1021.77 2.67024C1021.68 2.77398 1021.67 2.96791 1021.67 3.98543C1021.67 5.34571 1021.66 5.33095 1022.18 5.68169C1022.36 5.8046 1022.57 5.95662 1022.63 6.01967C1022.7 6.08271 1022.91 6.22038 1023.1 6.32533C1023.29 6.43027 1023.64 6.65611 1023.88 6.8269C1024.44 7.23511 1024.77 7.24708 1024.96 6.86641C1025.1 6.58389 1025.09 3.02856 1024.96 2.74485L1024.86 2.54853H1023.37C1022 2.54853 1021.86 2.55891 1021.77 2.67024ZM1058.81 2.59362C1057.92 2.71333 1056.42 3.19336 1055.66 3.59877C1055.46 3.70452 1055.22 3.81145 1055.13 3.83579C1054.93 3.88886 1053.73 4.7344 1053.11 5.26032C1052.3 5.94984 1050.99 7.4849 1050.69 8.0962C1050.48 8.52236 1050.18 9.06704 1050.13 9.09657C1050.05 9.14844 1049.46 10.6687 1049.31 11.1943C1048.75 13.2201 1048.75 13.2105 1048.75 19.3962V24.7552L1048.9 25.1973C1048.98 25.4407 1049.12 25.7188 1049.2 25.8154C1049.28 25.9124 1049.4 26.0692 1049.45 26.1645C1049.6 26.4111 1050.21 26.8214 1050.64 26.9658C1051.16 27.1346 1060.5 27.1534 1061.6 26.9874C1063.37 26.722 1065.55 25.8214 1066.77 24.8553C1066.98 24.6913 1067.21 24.5318 1067.28 24.5006C1067.35 24.4691 1067.67 24.1782 1067.99 23.8542C1068.31 23.5298 1068.6 23.2544 1068.63 23.2421C1068.66 23.2297 1068.91 22.9317 1069.17 22.5797C1069.44 22.2277 1069.72 21.8702 1069.79 21.7856C1069.86 21.701 1070.03 21.4158 1070.16 21.1516C1070.29 20.887 1070.43 20.626 1070.47 20.571C1070.52 20.5155 1070.7 20.156 1070.87 19.7718C1072.13 16.8911 1072.18 12.9564 1070.97 10.0295C1070.78 9.55425 1070.58 9.12091 1070.54 9.06585C1070.49 9.01118 1070.35 8.75181 1070.23 8.49004C1069.76 7.50565 1068.18 5.64977 1067.21 4.94868C1067.04 4.82378 1066.76 4.61151 1066.59 4.47584C1064.82 3.08722 1061.36 2.25086 1058.81 2.59362ZM1061.19 7.17405C1062.56 7.55153 1063.65 8.72308 1064.01 10.1927C1064.18 10.871 1064.15 15.1199 1063.98 15.7424C1063.84 16.2463 1063.67 16.6298 1063.5 16.8588C1062.69 17.9115 1062.18 18.3176 1061.27 18.6077C1059.43 19.196 1057.24 17.9446 1056.66 15.969C1056.47 15.3369 1056.37 11.2705 1056.52 10.4561C1056.96 8.0563 1059.06 6.58389 1061.19 7.17405ZM982.702 8.37672C981.356 8.49484 979.223 9.29688 978.49 9.96086C978.358 10.0798 978.154 10.2302 978.035 10.2948C977.615 10.5239 976.357 11.9868 976.002 12.6571C974.961 14.6271 974.646 15.8043 974.646 17.7243C974.646 25.7863 983.646 30.0902 989.314 24.7388C991.248 22.9125 991.326 22.5071 989.808 22.1435C989.382 22.0418 988.773 21.8854 988.454 21.7968C987.592 21.5566 987.444 21.5721 987.048 21.9452C985.177 23.7082 982.531 23.9209 980.508 22.4711C979.523 21.7652 978.694 20.6939 978.44 19.7997L978.357 19.5072H985.115H991.873L992.076 19.3065L992.278 19.1058L992.243 17.7602C992.223 16.975 992.171 16.2348 992.117 15.9826C992.068 15.7448 991.981 15.3258 991.923 15.0512C991.808 14.4986 991.279 13.272 990.934 12.7568C990.811 12.5741 990.693 12.3646 990.672 12.2912C990.598 12.0318 989.282 10.5925 988.846 10.2932C988.673 10.1751 988.427 9.98879 988.298 9.87906C987.173 8.92419 984.536 8.21631 982.702 8.37672ZM1000.95 8.4681C1000.41 8.51837 999.504 8.74502 999.217 8.90224C999.119 8.95571 998.995 8.99961 998.941 8.99961C998.15 8.99961 996.153 11.0003 995.397 12.5498C994.475 14.4379 994.449 14.6873 994.471 21.3918L994.488 26.7679L994.664 26.9283C994.89 27.1346 997.399 27.1817 997.683 26.985C997.935 26.809 997.935 26.8085 997.968 20.9704L997.999 15.2843L998.191 14.7815C998.297 14.505 998.542 14.056 998.735 13.7839C999.372 12.8842 999.318 12.9336 1000.22 12.4333C1001.19 11.9001 1002.23 11.9452 1003.17 12.561C1003.42 12.7237 1003.64 12.8566 1003.67 12.8566C1003.9 12.8566 1004.82 14.3143 1005.02 15.0093C1005.28 15.8741 1005.3 16.3389 1005.3 21.7059C1005.3 26.7376 1005.3 26.7994 1005.43 26.9431C1005.64 27.1809 1008.22 27.1681 1008.48 26.9283L1008.66 26.7679L1008.69 21.1923L1008.73 15.6167L1008.92 14.985C1010.12 11.0678 1014.51 11.1392 1015.82 15.0976L1015.99 15.6167L1016.02 21.2429C1016.05 25.876 1016.07 26.8884 1016.14 26.979C1016.3 27.1801 1019.09 27.1406 1019.27 26.9347L1019.41 26.781V21.1939C1019.41 14.8968 1019.42 15.0237 1018.94 13.5576C1018.53 12.294 1017.57 10.7509 1016.9 10.2921C1016.78 10.2091 1016.56 10.0231 1016.41 9.87946C1015.23 8.74144 1012.57 8.13052 1010.86 8.60417C1009.39 9.01357 1008.43 9.58737 1007.42 10.6727L1006.94 11.1915L1006.67 10.8567C1005.35 9.2079 1003.09 8.26739 1000.95 8.4681ZM1022.06 8.44775C1021.64 8.53434 1021.67 7.80652 1021.67 17.8153V26.813L1021.83 26.951C1022 27.0895 1024.46 27.1705 1024.77 27.0472C1025.06 26.9279 1025.05 27.2068 1025.05 17.7782C1025.05 8.10538 1025.07 8.61414 1024.7 8.46451C1024.55 8.40306 1022.34 8.3891 1022.06 8.44775ZM1034.61 8.53035C1033.84 8.6756 1032.74 9.04269 1032.2 9.33319C1031.77 9.55785 1031.12 9.97961 1031.07 10.0626C1031.05 10.0886 1030.91 10.1935 1030.76 10.2948C1030.6 10.3966 1030.21 10.7677 1029.89 11.1196C1027.76 13.436 1026.96 16.1893 1027.44 19.5738C1027.77 21.9273 1029.68 24.7464 1031.7 25.8801C1032.54 26.3505 1032.72 26.4367 1033.31 26.655C1036.43 27.7914 1040.03 26.88 1042.42 24.3526C1044.41 22.2473 1045.41 18.6509 1044.78 15.8828C1044.42 14.3202 1044.2 13.7065 1043.68 12.8902C1043.52 12.6339 1043.31 12.29 1043.22 12.1251C1042.98 11.7018 1041.89 10.5714 1041.27 10.1209C1039.32 8.68996 1036.87 8.10379 1034.61 8.53035ZM1059.58 8.47209C1058.87 8.65126 1058.17 9.32282 1057.91 10.0882L1057.75 10.5622V12.8902C1057.75 15.1534 1057.75 15.2296 1057.89 15.6498C1058.62 17.8217 1061.59 18.012 1062.56 15.9491C1062.85 15.3465 1062.86 15.1578 1062.84 12.7226L1062.82 10.4293L1062.63 9.99717C1062.08 8.77694 1060.84 8.15646 1059.58 8.47209ZM1060.7 11.2872L1060.91 11.5135V13.2344C1060.91 14.7472 1060.9 14.9751 1060.81 15.1199C1060.54 15.5321 1060.2 15.5704 1059.87 15.2244L1059.66 14.9982V13.2556V11.5135L1059.87 11.2872C1060.02 11.1244 1060.14 11.061 1060.28 11.061C1060.43 11.061 1060.55 11.1244 1060.7 11.2872ZM964.821 12.1875C968.641 13.2293 970.202 17.8879 967.842 21.2031C967.396 21.8295 967.231 21.9923 966.436 22.5933C964.402 24.1299 961.233 23.6048 959.451 21.4357C956.096 17.352 959.878 10.8391 964.821 12.1875ZM984.833 12.1914C986.455 12.7218 987.742 13.8913 988.343 15.3812L988.559 15.916H983.454H978.35L978.435 15.6601C978.612 15.1283 979.033 14.3781 979.317 14.0872C979.389 14.0138 979.509 13.8681 979.585 13.7628C980.557 12.4152 983.146 11.64 984.833 12.1914ZM1037.5 12.2266C1038.57 12.5565 1039.17 12.9293 1039.92 13.7404C1043.74 17.8396 1040.16 24.6032 1034.85 23.3068C1033.97 23.0909 1033.65 22.9173 1032.63 22.1017C1031.11 20.8838 1030.41 18.4458 1030.94 16.2531C1031.68 13.2397 1034.72 11.3734 1037.5 12.2266ZM1066.72 16.6741C1066.83 16.7986 1066.93 16.965 1066.93 17.0444C1066.93 17.4194 1066.26 19.206 1066.06 19.3743C1066.04 19.3923 1065.84 19.6468 1065.62 19.9393C1065.41 20.2322 1065.14 20.5462 1065.02 20.6376C1064.91 20.7294 1064.61 20.9724 1064.35 21.1783C1063.66 21.7418 1063.01 22.0438 1061.76 22.4005C1060.22 22.8375 1057.77 22.3714 1056.44 21.387C1055.52 20.7094 1054.44 19.5311 1054.3 19.0415C1054.27 18.9502 1054.16 18.6792 1054.04 18.439C1053.5 17.2894 1053.59 16.6809 1054.3 16.6809C1054.65 16.6809 1054.79 16.8245 1054.96 17.37C1055.04 17.6126 1055.19 17.9849 1055.31 18.1972C1055.42 18.4094 1055.52 18.607 1055.52 18.6361C1055.52 18.8935 1056.81 20.174 1057.35 20.4597C1060.66 22.1954 1064.49 20.7993 1065.52 17.4789C1065.84 16.4363 1066.24 16.1693 1066.72 16.6741Z" fill="white"/>
<path fill-rule="evenodd" clip-rule="evenodd" d="M969.092 2.68859C968.978 2.82226 968.971 2.99744 968.955 6.54559C968.945 8.79929 968.914 10.2629 968.879 10.2629C968.847 10.2629 968.77 10.2067 968.708 10.138C968.58 9.99438 967.912 9.55465 967.428 9.29448C966.145 8.60496 963.95 8.24305 962.403 8.4661C961.282 8.62731 959.329 9.36471 958.879 9.79606C958.81 9.8623 958.556 10.051 958.314 10.2158C957.894 10.5023 956.465 11.9711 956.465 12.116C956.465 12.1535 956.305 12.4312 956.11 12.7333C955.528 13.6355 955.269 14.3167 954.914 15.8828C954.636 17.1091 954.757 19.115 955.212 20.8371C955.386 21.4935 956.212 23.1319 956.414 23.2205C956.442 23.2325 956.465 23.2736 956.465 23.3115C956.465 23.545 957.598 24.7564 958.408 25.3888C960.599 27.0991 963.94 27.6094 966.471 26.6202C967.15 26.3553 968.375 25.6917 968.682 25.4232L968.91 25.2233L968.941 25.9846C968.969 26.6745 968.986 26.7619 969.124 26.9171L969.276 27.0887H970.669C971.947 27.0887 972.074 27.0784 972.21 26.9614L972.357 26.8345V15.5585C972.357 5.62224 972.347 4.27113 972.263 4.18614C972.212 4.13307 971.972 3.97904 971.731 3.84337C971.489 3.7077 971.235 3.54451 971.167 3.48026C970.362 2.73328 969.375 2.3566 969.092 2.68859ZM1021.77 2.67024C1021.68 2.77398 1021.67 2.96791 1021.67 3.98543C1021.67 5.34571 1021.66 5.33095 1022.18 5.68169C1022.36 5.8046 1022.57 5.95662 1022.63 6.01967C1022.7 6.08271 1022.91 6.22038 1023.1 6.32533C1023.29 6.43027 1023.64 6.65611 1023.88 6.8269C1024.44 7.23511 1024.77 7.24708 1024.96 6.86641C1025.1 6.58389 1025.09 3.02856 1024.96 2.74485L1024.86 2.54853H1023.37C1022 2.54853 1021.86 2.55891 1021.77 2.67024ZM1058.81 2.59362C1057.92 2.71333 1056.42 3.19336 1055.66 3.59877C1055.46 3.70452 1055.22 3.81145 1055.13 3.83579C1054.93 3.88886 1053.73 4.7344 1053.11 5.26032C1052.3 5.94984 1050.99 7.4849 1050.69 8.0962C1050.48 8.52236 1050.18 9.06704 1050.13 9.09657C1050.05 9.14844 1049.46 10.6687 1049.31 11.1943C1048.75 13.2201 1048.75 13.2105 1048.75 19.3962V24.7552L1048.9 25.1973C1048.98 25.4407 1049.12 25.7188 1049.2 25.8154C1049.28 25.9124 1049.4 26.0692 1049.45 26.1645C1049.6 26.4111 1050.21 26.8214 1050.64 26.9658C1051.16 27.1346 1060.5 27.1534 1061.6 26.9874C1063.37 26.722 1065.55 25.8214 1066.77 24.8553C1066.98 24.6913 1067.21 24.5318 1067.28 24.5006C1067.35 24.4691 1067.67 24.1782 1067.99 23.8542C1068.31 23.5298 1068.6 23.2544 1068.63 23.2421C1068.66 23.2297 1068.91 22.9317 1069.17 22.5797C1069.44 22.2277 1069.72 21.8702 1069.79 21.7856C1069.86 21.701 1070.03 21.4158 1070.16 21.1516C1070.29 20.887 1070.43 20.626 1070.47 20.571C1070.52 20.5155 1070.7 20.156 1070.87 19.7718C1072.13 16.8911 1072.18 12.9564 1070.97 10.0295C1070.78 9.55425 1070.58 9.12091 1070.54 9.06585C1070.49 9.01118 1070.35 8.75181 1070.23 8.49004C1069.76 7.50565 1068.18 5.64977 1067.21 4.94868C1067.04 4.82378 1066.76 4.61151 1066.59 4.47584C1064.82 3.08722 1061.36 2.25086 1058.81 2.59362ZM1061.19 7.17405C1062.56 7.55153 1063.65 8.72308 1064.01 10.1927C1064.18 10.871 1064.15 15.1199 1063.98 15.7424C1063.84 16.2463 1063.67 16.6298 1063.5 16.8588C1062.69 17.9115 1062.18 18.3176 1061.27 18.6077C1059.43 19.196 1057.24 17.9446 1056.66 15.969C1056.47 15.3369 1056.37 11.2705 1056.52 10.4561C1056.96 8.0563 1059.06 6.58389 1061.19 7.17405ZM982.702 8.37672C981.356 8.49484 979.223 9.29688 978.49 9.96086C978.358 10.0798 978.154 10.2302 978.035 10.2948C977.615 10.5239 976.357 11.9868 976.002 12.6571C974.961 14.6271 974.646 15.8043 974.646 17.7243C974.646 25.7863 983.646 30.0902 989.314 24.7388C991.248 22.9125 991.326 22.5071 989.808 22.1435C989.382 22.0418 988.773 21.8854 988.454 21.7968C987.592 21.5566 987.444 21.5721 987.048 21.9452C985.177 23.7082 982.531 23.9209 980.508 22.4711C979.523 21.7652 978.694 20.6939 978.44 19.7997L978.357 19.5072H985.115H991.873L992.076 19.3065L992.278 19.1058L992.243 17.7602C992.223 16.975 992.171 16.2348 992.117 15.9826C992.068 15.7448 991.981 15.3258 991.923 15.0512C991.808 14.4986 991.279 13.272 990.934 12.7568C990.811 12.5741 990.693 12.3646 990.672 12.2912C990.598 12.0318 989.282 10.5925 988.846 10.2932C988.673 10.1751 988.427 9.98879 988.298 9.87906C987.173 8.92419 984.536 8.21631 982.702 8.37672ZM1000.95 8.4681C1000.41 8.51837 999.504 8.74502 999.217 8.90224C999.119 8.95571 998.995 8.99961 998.941 8.99961C998.15 8.99961 996.153 11.0003 995.397 12.5498C994.475 14.4379 994.449 14.6873 994.471 21.3918L994.488 26.7679L994.664 26.9283C994.89 27.1346 997.399 27.1817 997.683 26.985C997.935 26.809 997.935 26.8085 997.968 20.9704L997.999 15.2843L998.191 14.7815C998.297 14.505 998.542 14.056 998.735 13.7839C999.372 12.8842 999.318 12.9336 1000.22 12.4333C1001.19 11.9001 1002.23 11.9452 1003.17 12.561C1003.42 12.7237 1003.64 12.8566 1003.67 12.8566C1003.9 12.8566 1004.82 14.3143 1005.02 15.0093C1005.28 15.8741 1005.3 16.3389 1005.3 21.7059C1005.3 26.7376 1005.3 26.7994 1005.43 26.9431C1005.64 27.1809 1008.22 27.1681 1008.48 26.9283L1008.66 26.7679L1008.69 21.1923L1008.73 15.6167L1008.92 14.985C1010.12 11.0678 1014.51 11.1392 1015.82 15.0976L1015.99 15.6167L1016.02 21.2429C1016.05 25.876 1016.07 26.8884 1016.14 26.979C1016.3 27.1801 1019.09 27.1406 1019.27 26.9347L1019.41 26.781V21.1939C1019.41 14.8968 1019.42 15.0237 1018.94 13.5576C1018.53 12.294 1017.57 10.7509 1016.9 10.2921C1016.78 10.2091 1016.56 10.0231 1016.41 9.87946C1015.23 8.74144 1012.57 8.13052 1010.86 8.60417C1009.39 9.01357 1008.43 9.58737 1007.42 10.6727L1006.94 11.1915L1006.67 10.8567C1005.35 9.2079 1003.09 8.26739 1000.95 8.4681ZM1022.06 8.44775C1021.64 8.53434 1021.67 7.80652 1021.67 17.8153V26.813L1021.83 26.951C1022 27.0895 1024.46 27.1705 1024.77 27.0472C1025.06 26.9279 1025.05 27.2068 1025.05 17.7782C1025.05 8.10538 1025.07 8.61414 1024.7 8.46451C1024.55 8.40306 1022.34 8.3891 1022.06 8.44775ZM1034.61 8.53035C1033.84 8.6756 1032.74 9.04269 1032.2 9.33319C1031.77 9.55785 1031.12 9.97961 1031.07 10.0626C1031.05 10.0886 1030.91 10.1935 1030.76 10.2948C1030.6 10.3966 1030.21 10.7677 1029.89 11.1196C1027.76 13.436 1026.96 16.1893 1027.44 19.5738C1027.77 21.9273 1029.68 24.7464 1031.7 25.8801C1032.54 26.3505 1032.72 26.4367 1033.31 26.655C1036.43 27.7914 1040.03 26.88 1042.42 24.3526C1044.41 22.2473 1045.41 18.6509 1044.78 15.8828C1044.42 14.3202 1044.2 13.7065 1043.68 12.8902C1043.52 12.6339 1043.31 12.29 1043.22 12.1251C1042.98 11.7018 1041.89 10.5714 1041.27 10.1209C1039.32 8.68996 1036.87 8.10379 1034.61 8.53035ZM1059.58 8.47209C1058.87 8.65126 1058.17 9.32282 1057.91 10.0882L1057.75 10.5622V12.8902C1057.75 15.1534 1057.75 15.2296 1057.89 15.6498C1058.62 17.8217 1061.59 18.012 1062.56 15.9491C1062.85 15.3465 1062.86 15.1578 1062.84 12.7226L1062.82 10.4293L1062.63 9.99717C1062.08 8.77694 1060.84 8.15646 1059.58 8.47209ZM1060.7 11.2872L1060.91 11.5135V13.2344C1060.91 14.7472 1060.9 14.9751 1060.81 15.1199C1060.54 15.5321 1060.2 15.5704 1059.87 15.2244L1059.66 14.9982V13.2556V11.5135L1059.87 11.2872C1060.02 11.1244 1060.14 11.061 1060.28 11.061C1060.43 11.061 1060.55 11.1244 1060.7 11.2872ZM964.821 12.1875C968.641 13.2293 970.202 17.8879 967.842 21.2031C967.396 21.8295 967.231 21.9923 966.436 22.5933C964.402 24.1299 961.233 23.6048 959.451 21.4357C956.096 17.352 959.878 10.8391 964.821 12.1875ZM984.833 12.1914C986.455 12.7218 987.742 13.8913 988.343 15.3812L988.559 15.916H983.454H978.35L978.435 15.6601C978.612 15.1283 979.033 14.3781 979.317 14.0872C979.389 14.0138 979.509 13.8681 979.585 13.7628C980.557 12.4152 983.146 11.64 984.833 12.1914ZM1037.5 12.2266C1038.57 12.5565 1039.17 12.9293 1039.92 13.7404C1043.74 17.8396 1040.16 24.6032 1034.85 23.3068C1033.97 23.0909 1033.65 22.9173 1032.63 22.1017C1031.11 20.8838 1030.41 18.4458 1030.94 16.2531C1031.68 13.2397 1034.72 11.3734 1037.5 12.2266ZM1066.72 16.6741C1066.83 16.7986 1066.93 16.965 1066.93 17.0444C1066.93 17.4194 1066.26 19.206 1066.06 19.3743C1066.04 19.3923 1065.84 19.6468 1065.62 19.9393C1065.41 20.2322 1065.14 20.5462 1065.02 20.6376C1064.91 20.7294 1064.61 20.9724 1064.35 21.1783C1063.66 21.7418 1063.01 22.0438 1061.76 22.4005C1060.22 22.8375 1057.77 22.3714 1056.44 21.387C1055.52 20.7094 1054.44 19.5311 1054.3 19.0415C1054.27 18.9502 1054.16 18.6792 1054.04 18.439C1053.5 17.2894 1053.59 16.6809 1054.3 16.6809C1054.65 16.6809 1054.79 16.8245 1054.96 17.37C1055.04 17.6126 1055.19 17.9849 1055.31 18.1972C1055.42 18.4094 1055.52 18.607 1055.52 18.6361C1055.52 18.8935 1056.81 20.174 1057.35 20.4597C1060.66 22.1954 1064.49 20.7993 1065.52 17.4789C1065.84 16.4363 1066.24 16.1693 1066.72 16.6741Z" fill="white"/>
<path fill-rule="evenodd" clip-rule="evenodd" d="M969.092 2.68859C968.978 2.82226 968.971 2.99744 968.955 6.54559C968.945 8.79929 968.914 10.2629 968.879 10.2629C968.847 10.2629 968.77 10.2067 968.708 10.138C968.58 9.99438 967.912 9.55465 967.428 9.29448C966.145 8.60496 963.95 8.24305 962.403 8.4661C961.282 8.62731 959.329 9.36471 958.879 9.79606C958.81 9.8623 958.556 10.051 958.314 10.2158C957.894 10.5023 956.465 11.9711 956.465 12.116C956.465 12.1535 956.305 12.4312 956.11 12.7333C955.528 13.6355 955.269 14.3167 954.914 15.8828C954.636 17.1091 954.757 19.115 955.212 20.8371C955.386 21.4935 956.212 23.1319 956.414 23.2205C956.442 23.2325 956.465 23.2736 956.465 23.3115C956.465 23.545 957.598 24.7564 958.408 25.3888C960.599 27.0991 963.94 27.6094 966.471 26.6202C967.15 26.3553 968.375 25.6917 968.682 25.4232L968.91 25.2233L968.941 25.9846C968.969 26.6745 968.986 26.7619 969.124 26.9171L969.276 27.0887H970.669C971.947 27.0887 972.074 27.0784 972.21 26.9614L972.357 26.8345V15.5585C972.357 5.62224 972.347 4.27113 972.263 4.18614C972.212 4.13307 971.972 3.97904 971.731 3.84337C971.489 3.7077 971.235 3.54451 971.167 3.48026C970.362 2.73328 969.375 2.3566 969.092 2.68859ZM1021.77 2.67024C1021.68 2.77398 1021.67 2.96791 1021.67 3.98543C1021.67 5.34571 1021.66 5.33095 1022.18 5.68169C1022.36 5.8046 1022.57 5.95662 1022.63 6.01967C1022.7 6.08271 1022.91 6.22038 1023.1 6.32533C1023.29 6.43027 1023.64 6.65611 1023.88 6.8269C1024.44 7.23511 1024.77 7.24708 1024.96 6.86641C1025.1 6.58389 1025.09 3.02856 1024.96 2.74485L1024.86 2.54853H1023.37C1022 2.54853 1021.86 2.55891 1021.77 2.67024ZM1058.81 2.59362C1057.92 2.71333 1056.42 3.19336 1055.66 3.59877C1055.46 3.70452 1055.22 3.81145 1055.13 3.83579C1054.93 3.88886 1053.73 4.7344 1053.11 5.26032C1052.3 5.94984 1050.99 7.4849 1050.69 8.0962C1050.48 8.52236 1050.18 9.06704 1050.13 9.09657C1050.05 9.14844 1049.46 10.6687 1049.31 11.1943C1048.75 13.2201 1048.75 13.2105 1048.75 19.3962V24.7552L1048.9 25.1973C1048.98 25.4407 1049.12 25.7188 1049.2 25.8154C1049.28 25.9124 1049.4 26.0692 1049.45 26.1645C1049.6 26.4111 1050.21 26.8214 1050.64 26.9658C1051.16 27.1346 1060.5 27.1534 1061.6 26.9874C1063.37 26.722 1065.55 25.8214 1066.77 24.8553C1066.98 24.6913 1067.21 24.5318 1067.28 24.5006C1067.35 24.4691 1067.67 24.1782 1067.99 23.8542C1068.31 23.5298 1068.6 23.2544 1068.63 23.2421C1068.66 23.2297 1068.91 22.9317 1069.17 22.5797C1069.44 22.2277 1069.72 21.8702 1069.79 21.7856C1069.86 21.701 1070.03 21.4158 1070.16 21.1516C1070.29 20.887 1070.43 20.626 1070.47 20.571C1070.52 20.5155 1070.7 20.156 1070.87 19.7718C1072.13 16.8911 1072.18 12.9564 1070.97 10.0295C1070.78 9.55425 1070.58 9.12091 1070.54 9.06585C1070.49 9.01118 1070.35 8.75181 1070.23 8.49004C1069.76 7.50565 1068.18 5.64977 1067.21 4.94868C1067.04 4.82378 1066.76 4.61151 1066.59 4.47584C1064.82 3.08722 1061.36 2.25086 1058.81 2.59362ZM1061.19 7.17405C1062.56 7.55153 1063.65 8.72308 1064.01 10.1927C1064.18 10.871 1064.15 15.1199 1063.98 15.7424C1063.84 16.2463 1063.67 16.6298 1063.5 16.8588C1062.69 17.9115 1062.18 18.3176 1061.27 18.6077C1059.43 19.196 1057.24 17.9446 1056.66 15.969C1056.47 15.3369 1056.37 11.2705 1056.52 10.4561C1056.96 8.0563 1059.06 6.58389 1061.19 7.17405ZM982.702 8.37672C981.356 8.49484 979.223 9.29688 978.49 9.96086C978.358 10.0798 978.154 10.2302 978.035 10.2948C977.615 10.5239 976.357 11.9868 976.002 12.6571C974.961 14.6271 974.646 15.8043 974.646 17.7243C974.646 25.7863 983.646 30.0902 989.314 24.7388C991.248 22.9125 991.326 22.5071 989.808 22.1435C989.382 22.0418 988.773 21.8854 988.454 21.7968C987.592 21.5566 987.444 21.5721 987.048 21.9452C985.177 23.7082 982.531 23.9209 980.508 22.4711C979.523 21.7652 978.694 20.6939 978.44 19.7997L978.357 19.5072H985.115H991.873L992.076 19.3065L992.278 19.1058L992.243 17.7602C992.223 16.975 992.171 16.2348 992.117 15.9826C992.068 15.7448 991.981 15.3258 991.923 15.0512C991.808 14.4986 991.279 13.272 990.934 12.7568C990.811 12.5741 990.693 12.3646 990.672 12.2912C990.598 12.0318 989.282 10.5925 988.846 10.2932C988.673 10.1751 988.427 9.98879 988.298 9.87906C987.173 8.92419 984.536 8.21631 982.702 8.37672ZM1000.95 8.4681C1000.41 8.51837 999.504 8.74502 999.217 8.90224C999.119 8.95571 998.995 8.99961 998.941 8.99961C998.15 8.99961 996.153 11.0003 995.397 12.5498C994.475 14.4379 994.449 14.6873 994.471 21.3918L994.488 26.7679L994.664 26.9283C994.89 27.1346 997.399 27.1817 997.683 26.985C997.935 26.809 997.935 26.8085 997.968 20.9704L997.999 15.2843L998.191 14.7815C998.297 14.505 998.542 14.056 998.735 13.7839C999.372 12.8842 999.318 12.9336 1000.22 12.4333C1001.19 11.9001 1002.23 11.9452 1003.17 12.561C1003.42 12.7237 1003.64 12.8566 1003.67 12.8566C1003.9 12.8566 1004.82 14.3143 1005.02 15.0093C1005.28 15.8741 1005.3 16.3389 1005.3 21.7059C1005.3 26.7376 1005.3 26.7994 1005.43 26.9431C1005.64 27.1809 1008.22 27.1681 1008.48 26.9283L1008.66 26.7679L1008.69 21.1923L1008.73 15.6167L1008.92 14.985C1010.12 11.0678 1014.51 11.1392 1015.82 15.0976L1015.99 15.6167L1016.02 21.2429C1016.05 25.876 1016.07 26.8884 1016.14 26.979C1016.3 27.1801 1019.09 27.1406 1019.27 26.9347L1019.41 26.781V21.1939C1019.41 14.8968 1019.42 15.0237 1018.94 13.5576C1018.53 12.294 1017.57 10.7509 1016.9 10.2921C1016.78 10.2091 1016.56 10.0231 1016.41 9.87946C1015.23 8.74144 1012.57 8.13052 1010.86 8.60417C1009.39 9.01357 1008.43 9.58737 1007.42 10.6727L1006.94 11.1915L1006.67 10.8567C1005.35 9.2079 1003.09 8.26739 1000.95 8.4681ZM1022.06 8.44775C1021.64 8.53434 1021.67 7.80652 1021.67 17.8153V26.813L1021.83 26.951C1022 27.0895 1024.46 27.1705 1024.77 27.0472C1025.06 26.9279 1025.05 27.2068 1025.05 17.7782C1025.05 8.10538 1025.07 8.61414 1024.7 8.46451C1024.55 8.40306 1022.34 8.3891 1022.06 8.44775ZM1034.61 8.53035C1033.84 8.6756 1032.74 9.04269 1032.2 9.33319C1031.77 9.55785 1031.12 9.97961 1031.07 10.0626C1031.05 10.0886 1030.91 10.1935 1030.76 10.2948C1030.6 10.3966 1030.21 10.7677 1029.89 11.1196C1027.76 13.436 1026.96 16.1893 1027.44 19.5738C1027.77 21.9273 1029.68 24.7464 1031.7 25.8801C1032.54 26.3505 1032.72 26.4367 1033.31 26.655C1036.43 27.7914 1040.03 26.88 1042.42 24.3526C1044.41 22.2473 1045.41 18.6509 1044.78 15.8828C1044.42 14.3202 1044.2 13.7065 1043.68 12.8902C1043.52 12.6339 1043.31 12.29 1043.22 12.1251C1042.98 11.7018 1041.89 10.5714 1041.27 10.1209C1039.32 8.68996 1036.87 8.10379 1034.61 8.53035ZM1059.58 8.47209C1058.87 8.65126 1058.17 9.32282 1057.91 10.0882L1057.75 10.5622V12.8902C1057.75 15.1534 1057.75 15.2296 1057.89 15.6498C1058.62 17.8217 1061.59 18.012 1062.56 15.9491C1062.85 15.3465 1062.86 15.1578 1062.84 12.7226L1062.82 10.4293L1062.63 9.99717C1062.08 8.77694 1060.84 8.15646 1059.58 8.47209ZM1060.7 11.2872L1060.91 11.5135V13.2344C1060.91 14.7472 1060.9 14.9751 1060.81 15.1199C1060.54 15.5321 1060.2 15.5704 1059.87 15.2244L1059.66 14.9982V13.2556V11.5135L1059.87 11.2872C1060.02 11.1244 1060.14 11.061 1060.28 11.061C1060.43 11.061 1060.55 11.1244 1060.7 11.2872ZM964.821 12.1875C968.641 13.2293 970.202 17.8879 967.842 21.2031C967.396 21.8295 967.231 21.9923 966.436 22.5933C964.402 24.1299 961.233 23.6048 959.451 21.4357C956.096 17.352 959.878 10.8391 964.821 12.1875ZM984.833 12.1914C986.455 12.7218 987.742 13.8913 988.343 15.3812L988.559 15.916H983.454H978.35L978.435 15.6601C978.612 15.1283 979.033 14.3781 979.317 14.0872C979.389 14.0138 979.509 13.8681 979.585 13.7628C980.557 12.4152 983.146 11.64 984.833 12.1914ZM1037.5 12.2266C1038.57 12.5565 1039.17 12.9293 1039.92 13.7404C1043.74 17.8396 1040.16 24.6032 1034.85 23.3068C1033.97 23.0909 1033.65 22.9173 1032.63 22.1017C1031.11 20.8838 1030.41 18.4458 1030.94 16.2531C1031.68 13.2397 1034.72 11.3734 1037.5 12.2266ZM1066.72 16.6741C1066.83 16.7986 1066.93 16.965 1066.93 17.0444C1066.93 17.4194 1066.26 19.206 1066.06 19.3743C1066.04 19.3923 1065.84 19.6468 1065.62 19.9393C1065.41 20.2322 1065.14 20.5462 1065.02 20.6376C1064.91 20.7294 1064.61 20.9724 1064.35 21.1783C1063.66 21.7418 1063.01 22.0438 1061.76 22.4005C1060.22 22.8375 1057.77 22.3714 1056.44 21.387C1055.52 20.7094 1054.44 19.5311 1054.3 19.0415C1054.27 18.9502 1054.16 18.6792 1054.04 18.439C1053.5 17.2894 1053.59 16.6809 1054.3 16.6809C1054.65 16.6809 1054.79 16.8245 1054.96 17.37C1055.04 17.6126 1055.19 17.9849 1055.31 18.1972C1055.42 18.4094 1055.52 18.607 1055.52 18.6361C1055.52 18.8935 1056.81 20.174 1057.35 20.4597C1060.66 22.1954 1064.49 20.7993 1065.52 17.4789C1065.84 16.4363 1066.24 16.1693 1066.72 16.6741Z" fill="white"/>
<path fill-rule="evenodd" clip-rule="evenodd" d="M969.092 2.68859C968.978 2.82226 968.971 2.99744 968.955 6.54559C968.945 8.79929 968.914 10.2629 968.879 10.2629C968.847 10.2629 968.77 10.2067 968.708 10.138C968.58 9.99438 967.912 9.55465 967.428 9.29448C966.145 8.60496 963.95 8.24305 962.403 8.4661C961.282 8.62731 959.329 9.36471 958.879 9.79606C958.81 9.8623 958.556 10.051 958.314 10.2158C957.894 10.5023 956.465 11.9711 956.465 12.116C956.465 12.1535 956.305 12.4312 956.11 12.7333C955.528 13.6355 955.269 14.3167 954.914 15.8828C954.636 17.1091 954.757 19.115 955.212 20.8371C955.386 21.4935 956.212 23.1319 956.414 23.2205C956.442 23.2325 956.465 23.2736 956.465 23.3115C956.465 23.545 957.598 24.7564 958.408 25.3888C960.599 27.0991 963.94 27.6094 966.471 26.6202C967.15 26.3553 968.375 25.6917 968.682 25.4232L968.91 25.2233L968.941 25.9846C968.969 26.6745 968.986 26.7619 969.124 26.9171L969.276 27.0887H970.669C971.947 27.0887 972.074 27.0784 972.21 26.9614L972.357 26.8345V15.5585C972.357 5.62224 972.347 4.27113 972.263 4.18614C972.212 4.13307 971.972 3.97904 971.731 3.84337C971.489 3.7077 971.235 3.54451 971.167 3.48026C970.362 2.73328 969.375 2.3566 969.092 2.68859ZM1021.77 2.67024C1021.68 2.77398 1021.67 2.96791 1021.67 3.98543C1021.67 5.34571 1021.66 5.33095 1022.18 5.68169C1022.36 5.8046 1022.57 5.95662 1022.63 6.01967C1022.7 6.08271 1022.91 6.22038 1023.1 6.32533C1023.29 6.43027 1023.64 6.65611 1023.88 6.8269C1024.44 7.23511 1024.77 7.24708 1024.96 6.86641C1025.1 6.58389 1025.09 3.02856 1024.96 2.74485L1024.86 2.54853H1023.37C1022 2.54853 1021.86 2.55891 1021.77 2.67024ZM1058.81 2.59362C1057.92 2.71333 1056.42 3.19336 1055.66 3.59877C1055.46 3.70452 1055.22 3.81145 1055.13 3.83579C1054.93 3.88886 1053.73 4.7344 1053.11 5.26032C1052.3 5.94984 1050.99 7.4849 1050.69 8.0962C1050.48 8.52236 1050.18 9.06704 1050.13 9.09657C1050.05 9.14844 1049.46 10.6687 1049.31 11.1943C1048.75 13.2201 1048.75 13.2105 1048.75 19.3962V24.7552L1048.9 25.1973C1048.98 25.4407 1049.12 25.7188 1049.2 25.8154C1049.28 25.9124 1049.4 26.0692 1049.45 26.1645C1049.6 26.4111 1050.21 26.8214 1050.64 26.9658C1051.16 27.1346 1060.5 27.1534 1061.6 26.9874C1063.37 26.722 1065.55 25.8214 1066.77 24.8553C1066.98 24.6913 1067.21 24.5318 1067.28 24.5006C1067.35 24.4691 1067.67 24.1782 1067.99 23.8542C1068.31 23.5298 1068.6 23.2544 1068.63 23.2421C1068.66 23.2297 1068.91 22.9317 1069.17 22.5797C1069.44 22.2277 1069.72 21.8702 1069.79 21.7856C1069.86 21.701 1070.03 21.4158 1070.16 21.1516C1070.29 20.887 1070.43 20.626 1070.47 20.571C1070.52 20.5155 1070.7 20.156 1070.87 19.7718C1072.13 16.8911 1072.18 12.9564 1070.97 10.0295C1070.78 9.55425 1070.58 9.12091 1070.54 9.06585C1070.49 9.01118 1070.35 8.75181 1070.23 8.49004C1069.76 7.50565 1068.18 5.64977 1067.21 4.94868C1067.04 4.82378 1066.76 4.61151 1066.59 4.47584C1064.82 3.08722 1061.36 2.25086 1058.81 2.59362ZM1061.19 7.17405C1062.56 7.55153 1063.65 8.72308 1064.01 10.1927C1064.18 10.871 1064.15 15.1199 1063.98 15.7424C1063.84 16.2463 1063.67 16.6298 1063.5 16.8588C1062.69 17.9115 1062.18 18.3176 1061.27 18.6077C1059.43 19.196 1057.24 17.9446 1056.66 15.969C1056.47 15.3369 1056.37 11.2705 1056.52 10.4561C1056.96 8.0563 1059.06 6.58389 1061.19 7.17405ZM982.702 8.37672C981.356 8.49484 979.223 9.29688 978.49 9.96086C978.358 10.0798 978.154 10.2302 978.035 10.2948C977.615 10.5239 976.357 11.9868 976.002 12.6571C974.961 14.6271 974.646 15.8043 974.646 17.7243C974.646 25.7863 983.646 30.0902 989.314 24.7388C991.248 22.9125 991.326 22.5071 989.808 22.1435C989.382 22.0418 988.773 21.8854 988.454 21.7968C987.592 21.5566 987.444 21.5721 987.048 21.9452C985.177 23.7082 982.531 23.9209 980.508 22.4711C979.523 21.7652 978.694 20.6939 978.44 19.7997L978.357 19.5072H985.115H991.873L992.076 19.3065L992.278 19.1058L992.243 17.7602C992.223 16.975 992.171 16.2348 992.117 15.9826C992.068 15.7448 991.981 15.3258 991.923 15.0512C991.808 14.4986 991.279 13.272 990.934 12.7568C990.811 12.5741 990.693 12.3646 990.672 12.2912C990.598 12.0318 989.282 10.5925 988.846 10.2932C988.673 10.1751 988.427 9.98879 988.298 9.87906C987.173 8.92419 984.536 8.21631 982.702 8.37672ZM1000.95 8.4681C1000.41 8.51837 999.504 8.74502 999.217 8.90224C999.119 8.95571 998.995 8.99961 998.941 8.99961C998.15 8.99961 996.153 11.0003 995.397 12.5498C994.475 14.4379 994.449 14.6873 994.471 21.3918L994.488 26.7679L994.664 26.9283C994.89 27.1346 997.399 27.1817 997.683 26.985C997.935 26.809 997.935 26.8085 997.968 20.9704L997.999 15.2843L998.191 14.7815C998.297 14.505 998.542 14.056 998.735 13.7839C999.372 12.8842 999.318 12.9336 1000.22 12.4333C1001.19 11.9001 1002.23 11.9452 1003.17 12.561C1003.42 12.7237 1003.64 12.8566 1003.67 12.8566C1003.9 12.8566 1004.82 14.3143 1005.02 15.0093C1005.28 15.8741 1005.3 16.3389 1005.3 21.7059C1005.3 26.7376 1005.3 26.7994 1005.43 26.9431C1005.64 27.1809 1008.22 27.1681 1008.48 26.9283L1008.66 26.7679L1008.69 21.1923L1008.73 15.6167L1008.92 14.985C1010.12 11.0678 1014.51 11.1392 1015.82 15.0976L1015.99 15.6167L1016.02 21.2429C1016.05 25.876 1016.07 26.8884 1016.14 26.979C1016.3 27.1801 1019.09 27.1406 1019.27 26.9347L1019.41 26.781V21.1939C1019.41 14.8968 1019.42 15.0237 1018.94 13.5576C1018.53 12.294 1017.57 10.7509 1016.9 10.2921C1016.78 10.2091 1016.56 10.0231 1016.41 9.87946C1015.23 8.74144 1012.57 8.13052 1010.86 8.60417C1009.39 9.01357 1008.43 9.58737 1007.42 10.6727L1006.94 11.1915L1006.67 10.8567C1005.35 9.2079 1003.09 8.26739 1000.95 8.4681ZM1022.06 8.44775C1021.64 8.53434 1021.67 7.80652 1021.67 17.8153V26.813L1021.83 26.951C1022 27.0895 1024.46 27.1705 1024.77 27.0472C1025.06 26.9279 1025.05 27.2068 1025.05 17.7782C1025.05 8.10538 1025.07 8.61414 1024.7 8.46451C1024.55 8.40306 1022.34 8.3891 1022.06 8.44775ZM1034.61 8.53035C1033.84 8.6756 1032.74 9.04269 1032.2 9.33319C1031.77 9.55785 1031.12 9.97961 1031.07 10.0626C1031.05 10.0886 1030.91 10.1935 1030.76 10.2948C1030.6 10.3966 1030.21 10.7677 1029.89 11.1196C1027.76 13.436 1026.96 16.1893 1027.44 19.5738C1027.77 21.9273 1029.68 24.7464 1031.7 25.8801C1032.54 26.3505 1032.72 26.4367 1033.31 26.655C1036.43 27.7914 1040.03 26.88 1042.42 24.3526C1044.41 22.2473 1045.41 18.6509 1044.78 15.8828C1044.42 14.3202 1044.2 13.7065 1043.68 12.8902C1043.52 12.6339 1043.31 12.29 1043.22 12.1251C1042.98 11.7018 1041.89 10.5714 1041.27 10.1209C1039.32 8.68996 1036.87 8.10379 1034.61 8.53035ZM1059.58 8.47209C1058.87 8.65126 1058.17 9.32282 1057.91 10.0882L1057.75 10.5622V12.8902C1057.75 15.1534 1057.75 15.2296 1057.89 15.6498C1058.62 17.8217 1061.59 18.012 1062.56 15.9491C1062.85 15.3465 1062.86 15.1578 1062.84 12.7226L1062.82 10.4293L1062.63 9.99717C1062.08 8.77694 1060.84 8.15646 1059.58 8.47209ZM1060.7 11.2872L1060.91 11.5135V13.2344C1060.91 14.7472 1060.9 14.9751 1060.81 15.1199C1060.54 15.5321 1060.2 15.5704 1059.87 15.2244L1059.66 14.9982V13.2556V11.5135L1059.87 11.2872C1060.02 11.1244 1060.14 11.061 1060.28 11.061C1060.43 11.061 1060.55 11.1244 1060.7 11.2872ZM964.821 12.1875C968.641 13.2293 970.202 17.8879 967.842 21.2031C967.396 21.8295 967.231 21.9923 966.436 22.5933C964.402 24.1299 961.233 23.6048 959.451 21.4357C956.096 17.352 959.878 10.8391 964.821 12.1875ZM984.833 12.1914C986.455 12.7218 987.742 13.8913 988.343 15.3812L988.559 15.916H983.454H978.35L978.435 15.6601C978.612 15.1283 979.033 14.3781 979.317 14.0872C979.389 14.0138 979.509 13.8681 979.585 13.7628C980.557 12.4152 983.146 11.64 984.833 12.1914ZM1037.5 12.2266C1038.57 12.5565 1039.17 12.9293 1039.92 13.7404C1043.74 17.8396 1040.16 24.6032 1034.85 23.3068C1033.97 23.0909 1033.65 22.9173 1032.63 22.1017C1031.11 20.8838 1030.41 18.4458 1030.94 16.2531C1031.68 13.2397 1034.72 11.3734 1037.5 12.2266ZM1066.72 16.6741C1066.83 16.7986 1066.93 16.965 1066.93 17.0444C1066.93 17.4194 1066.26 19.206 1066.06 19.3743C1066.04 19.3923 1065.84 19.6468 1065.62 19.9393C1065.41 20.2322 1065.14 20.5462 1065.02 20.6376C1064.91 20.7294 1064.61 20.9724 1064.35 21.1783C1063.66 21.7418 1063.01 22.0438 1061.76 22.4005C1060.22 22.8375 1057.77 22.3714 1056.44 21.387C1055.52 20.7094 1054.44 19.5311 1054.3 19.0415C1054.27 18.9502 1054.16 18.6792 1054.04 18.439C1053.5 17.2894 1053.59 16.6809 1054.3 16.6809C1054.65 16.6809 1054.79 16.8245 1054.96 17.37C1055.04 17.6126 1055.19 17.9849 1055.31 18.1972C1055.42 18.4094 1055.52 18.607 1055.52 18.6361C1055.52 18.8935 1056.81 20.174 1057.35 20.4597C1060.66 22.1954 1064.49 20.7993 1065.52 17.4789C1065.84 16.4363 1066.24 16.1693 1066.72 16.6741Z" fill="white"/>
</g>
</g>
<defs>
<clipPath id="clip0">
<rect width="117.188" height="25" fill="white" transform="translate(98.0469 2.51685)"/>
</clipPath>
<clipPath id="clip1">
<rect width="117.188" height="25" fill="white" transform="translate(289.234 2.51685)"/>
</clipPath>
<clipPath id="clip2">
<rect width="92.1875" height="25" fill="white" transform="translate(480.422 2.51685)"/>
</clipPath>
<clipPath id="clip3">
<rect width="104.688" height="25" fill="white" transform="translate(646.609 2.51685)"/>
</clipPath>
<clipPath id="clip4">
<rect width="55.4688" height="25" fill="white" transform="translate(825.297 2.51685)"/>
</clipPath>
<clipPath id="clip5">
<rect width="117.188" height="25" fill="white" transform="translate(954.766 2.51685)"/>
</clipPath>
</defs>
</svg>
