<svg width="152" height="40" viewBox="0 0 152 40" fill="none" xmlns="http://www.w3.org/2000/svg">
<path opacity="0.1" fill-rule="evenodd" clip-rule="evenodd" d="M20 40C31.0457 40 40 31.0457 40 20C40 8.9543 31.0457 0 20 0C8.9543 0 0 8.9543 0 20C0 31.0457 8.9543 40 20 40Z" fill="#F6F6F6"/>
<path d="M26.3929 19.3023H20.6268C20.6268 19.902 20.6268 21.1013 20.6231 21.701H23.9644C23.8364 22.3006 23.3824 23.1402 22.741 23.5629C22.7404 23.5623 22.7398 23.5665 22.7385 23.5659C21.8857 24.129 20.7603 24.2567 19.9247 24.0888C18.6149 23.8286 17.5783 22.8787 17.1574 21.6722C17.1599 21.6704 17.1617 21.6536 17.1635 21.6524C16.9001 20.904 16.9001 19.902 17.1635 19.3023H17.1629C17.5023 18.2001 18.5702 17.1945 19.8818 16.9193C20.9368 16.6956 22.1271 16.9378 23.0026 17.757C23.119 17.6431 24.6138 16.1835 24.7259 16.0647C21.735 13.3561 16.9461 14.3089 15.1541 17.8068H15.1535C15.1535 17.8068 15.1541 17.8068 15.1504 17.8134C14.2639 19.5314 14.3007 21.5559 15.1565 23.1917C15.1541 23.1935 15.1523 23.1947 15.1504 23.1965C15.926 24.7017 17.3375 25.856 19.0382 26.2956C20.8449 26.7693 23.1441 26.4455 24.6843 25.0525C24.6849 25.0531 24.6855 25.0537 24.6861 25.0543C25.991 23.8789 26.8034 21.8767 26.3929 19.3023Z" fill="white"/>
<path opacity="0.1" fill-rule="evenodd" clip-rule="evenodd" d="M76 40C87.0457 40 96 31.0457 96 20C96 8.9543 87.0457 0 76 0C64.9543 0 56 8.9543 56 20C56 31.0457 64.9543 40 76 40Z" fill="#F6F6F6"/>
<path d="M73.403 26C78.6859 26 81.5755 21.3827 81.5755 17.3791C81.5755 17.2477 81.5755 17.117 81.5671 16.987C82.1292 16.5587 82.6143 16.0271 83 15.4186C82.4764 15.6638 81.9199 15.8247 81.3508 15.8956C81.95 15.5168 82.3987 14.9217 82.6136 14.2195C82.0494 14.5724 81.4327 14.8213 80.7894 14.9549C79.7016 13.7351 77.8823 13.676 76.7252 14.8235C75.9797 15.5634 75.6626 16.6665 75.8943 17.7188C73.585 17.5962 71.4332 16.4457 69.9744 14.5532C69.2121 15.9377 69.602 17.7084 70.8641 18.5975C70.407 18.5834 69.9597 18.4535 69.56 18.2187V18.2571C69.5607 19.6992 70.5246 20.9412 71.8644 21.2269C71.4416 21.3488 70.9978 21.3665 70.568 21.2786C70.9439 22.5132 72.0226 23.3587 73.2511 23.3831C72.234 24.2263 70.9775 24.6842 69.6839 24.6827C69.4557 24.6819 69.2275 24.6679 69 24.6391C70.3139 25.5282 71.842 26 73.403 25.9978" fill="white"/>
<path opacity="0.1" fill-rule="evenodd" clip-rule="evenodd" d="M132 40C143.046 40 152 31.0457 152 20C152 8.9543 143.046 0 132 0C120.954 0 112 8.9543 112 20C112 31.0457 120.954 40 132 40Z" fill="#F6F6F6"/>
<path d="M133.457 27V20.7H135.643L136 17.9H133.457V16.5364C133.457 15.8154 133.478 15.1 134.63 15.1H135.796V13.098C135.796 13.0679 134.794 13 133.781 13C131.664 13 130.339 14.1599 130.339 16.29V17.9H128V20.7H130.339V27H133.457Z" fill="white"/>
</svg>
